<svg xmlns="http://www.w3.org/2000/svg" width="240" height="380" viewBox="0 0 240 380" role="img"><title>花札 8月</title><defs><linearGradient id="paper" x2="1" y2="1"><stop stop-color="#faf1d6"/><stop offset=".56" stop-color="#f0e5c9"/><stop offset="1" stop-color="#e3d4b0"/></linearGradient><linearGradient id="red" x2="0.5" y2="1"><stop stop-color="#d94d40"/><stop offset="1" stop-color="#a22627"/></linearGradient><clipPath id="face"><rect x="10" y="10" width="220" height="360" rx="4"/></clipPath><g id="plum"><g transform="rotate(0)"><ellipse cx="0" cy="-11" rx="9.7" ry="12" fill="#c83930" stroke="#1c2622" stroke-width="1.3"/></g><g transform="rotate(72)"><ellipse cx="0" cy="-11" rx="9.7" ry="12" fill="#c83930" stroke="#1c2622" stroke-width="1.3"/></g><g transform="rotate(144)"><ellipse cx="0" cy="-11" rx="9.7" ry="12" fill="#c83930" stroke="#1c2622" stroke-width="1.3"/></g><g transform="rotate(216)"><ellipse cx="0" cy="-11" rx="9.7" ry="12" fill="#c83930" stroke="#1c2622" stroke-width="1.3"/></g><g transform="rotate(288)"><ellipse cx="0" cy="-11" rx="9.7" ry="12" fill="#c83930" stroke="#1c2622" stroke-width="1.3"/></g><circle cx="0" cy="0" r="6" fill="#bc9555" stroke="#1c2622" stroke-width="0.8"/><path d="M0 0L10.0 0.0" fill="none" stroke="#fff8e1" stroke-width="0.7" /><circle cx="10.0" cy="0.0" r="1.4" fill="#fff8e1"/><path d="M0 0L7.1 7.1" fill="none" stroke="#fff8e1" stroke-width="0.7" /><circle cx="7.1" cy="7.1" r="1.4" fill="#fff8e1"/><path d="M0 0L0.0 10.0" fill="none" stroke="#fff8e1" stroke-width="0.7" /><circle cx="0.0" cy="10.0" r="1.4" fill="#fff8e1"/><path d="M0 0L-7.1 7.1" fill="none" stroke="#fff8e1" stroke-width="0.7" /><circle cx="-7.1" cy="7.1" r="1.4" fill="#fff8e1"/><path d="M0 0L-10.0 0.0" fill="none" stroke="#fff8e1" stroke-width="0.7" /><circle cx="-10.0" cy="0.0" r="1.4" fill="#fff8e1"/><path d="M0 0L-7.1 -7.1" fill="none" stroke="#fff8e1" stroke-width="0.7" /><circle cx="-7.1" cy="-7.1" r="1.4" fill="#fff8e1"/><path d="M0 0L-0.0 -10.0" fill="none" stroke="#fff8e1" stroke-width="0.7" /><circle cx="-0.0" cy="-10.0" r="1.4" fill="#fff8e1"/><path d="M0 0L7.1 -7.1" fill="none" stroke="#fff8e1" stroke-width="0.7" /><circle cx="7.1" cy="-7.1" r="1.4" fill="#fff8e1"/></g><g id="sakura"><g transform="rotate(0)"><path d="M0 0C-16-10-17-25-7-30L0-25L7-30C17-25 16-10 0 0" fill="#fff8e1" stroke="#1c2622" stroke-width="1" /></g><g transform="rotate(72)"><path d="M0 0C-16-10-17-25-7-30L0-25L7-30C17-25 16-10 0 0" fill="#fff8e1" stroke="#1c2622" stroke-width="1" /></g><g transform="rotate(144)"><path d="M0 0C-16-10-17-25-7-30L0-25L7-30C17-25 16-10 0 0" fill="#fff8e1" stroke="#1c2622" stroke-width="1" /></g><g transform="rotate(216)"><path d="M0 0C-16-10-17-25-7-30L0-25L7-30C17-25 16-10 0 0" fill="#fff8e1" stroke="#1c2622" stroke-width="1" /></g><g transform="rotate(288)"><path d="M0 0C-16-10-17-25-7-30L0-25L7-30C17-25 16-10 0 0" fill="#fff8e1" stroke="#1c2622" stroke-width="1" /></g><circle cx="0" cy="0" r="4.6" fill="#c83930"/><path d="M0 0L14.0 0.0" fill="none" stroke="#c83930" stroke-width="0.8" /><circle cx="14.0" cy="0.0" r="1.4" fill="#c83930"/><path d="M0 0L11.3 8.2" fill="none" stroke="#c83930" stroke-width="0.8" /><circle cx="11.3" cy="8.2" r="1.4" fill="#c83930"/><path d="M0 0L4.3 13.3" fill="none" stroke="#c83930" stroke-width="0.8" /><circle cx="4.3" cy="13.3" r="1.4" fill="#c83930"/><path d="M0 0L-4.3 13.3" fill="none" stroke="#c83930" stroke-width="0.8" /><circle cx="-4.3" cy="13.3" r="1.4" fill="#c83930"/><path d="M0 0L-11.3 8.2" fill="none" stroke="#c83930" stroke-width="0.8" /><circle cx="-11.3" cy="8.2" r="1.4" fill="#c83930"/><path d="M0 0L-14.0 0.0" fill="none" stroke="#c83930" stroke-width="0.8" /><circle cx="-14.0" cy="0.0" r="1.4" fill="#c83930"/><path d="M0 0L-11.3 -8.2" fill="none" stroke="#c83930" stroke-width="0.8" /><circle cx="-11.3" cy="-8.2" r="1.4" fill="#c83930"/><path d="M0 0L-4.3 -13.3" fill="none" stroke="#c83930" stroke-width="0.8" /><circle cx="-4.3" cy="-13.3" r="1.4" fill="#c83930"/><path d="M0 0L4.3 -13.3" fill="none" stroke="#c83930" stroke-width="0.8" /><circle cx="4.3" cy="-13.3" r="1.4" fill="#c83930"/><path d="M0 0L11.3 -8.2" fill="none" stroke="#c83930" stroke-width="0.8" /><circle cx="11.3" cy="-8.2" r="1.4" fill="#c83930"/></g><g id="pine"><path d="M-55 9C-73-12-49-35-24-30C-25-52 13-51 26-30C52-45 77-16 55 9Z" fill="#254236" stroke="#1c2622" stroke-width="2" /><path d="M0 12Q-41.6 -8 -52 -18.4" fill="none" stroke="#f2e8cb" stroke-width="0.95" /><path d="M0 12Q-36.8 -8 -46 -19.9" fill="none" stroke="#f2e8cb" stroke-width="0.95" /><path d="M0 12Q-32.0 -8 -40 -21.3" fill="none" stroke="#f2e8cb" stroke-width="0.95" /><path d="M0 12Q-27.2 -8 -34 -22.8" fill="none" stroke="#f2e8cb" stroke-width="0.95" /><path d="M0 12Q-22.4 -8 -28 -24.2" fill="none" stroke="#f2e8cb" stroke-width="0.95" /><path d="M0 12Q-17.6 -8 -22 -25.7" fill="none" stroke="#f2e8cb" stroke-width="0.95" /><path d="M0 12Q-12.8 -8 -16 -27.1" fill="none" stroke="#f2e8cb" stroke-width="0.95" /><path d="M0 12Q-8.0 -8 -10 -28.6" fill="none" stroke="#f2e8cb" stroke-width="0.95" /><path d="M0 12Q-3.2 -8 -4 -30.0" fill="none" stroke="#f2e8cb" stroke-width="0.95" /><path d="M0 12Q1.6 -8 2 -30.5" fill="none" stroke="#f2e8cb" stroke-width="0.95" /><path d="M0 12Q6.4 -8 8 -29.1" fill="none" stroke="#f2e8cb" stroke-width="0.95" /><path d="M0 12Q11.2 -8 14 -27.6" fill="none" stroke="#f2e8cb" stroke-width="0.95" /><path d="M0 12Q16.0 -8 20 -26.2" fill="none" stroke="#f2e8cb" stroke-width="0.95" /><path d="M0 12Q20.8 -8 26 -24.7" fill="none" stroke="#f2e8cb" stroke-width="0.95" /><path d="M0 12Q25.6 -8 32 -23.3" fill="none" stroke="#f2e8cb" stroke-width="0.95" /><path d="M0 12Q30.4 -8 38 -21.8" fill="none" stroke="#f2e8cb" stroke-width="0.95" /><path d="M0 12Q35.2 -8 44 -20.4" fill="none" stroke="#f2e8cb" stroke-width="0.95" /><path d="M0 12Q40.0 -8 50 -18.9" fill="none" stroke="#f2e8cb" stroke-width="0.95" /><path d="M0 12Q44.8 -8 56 -17.5" fill="none" stroke="#f2e8cb" stroke-width="0.95" /><path d="M-54 10Q0-4 54 10" fill="none" stroke="#1c2622" stroke-width="2" /></g><g id="maple"><path d="M0 37L-5 13L-23 23L-20 8L-40 4L-28-7L-35-23L-15-20L-18-43L-5-32L0-54L7-32L20-45L18-20L36-25L29-7L42 3L23 9L26 22L7 13Z" fill="#c83930" stroke="#1c2622" stroke-width="1.5" /><path d="M0 27L-27 -17" fill="none" stroke="#bc9555" stroke-width="1" /><path d="M0 27L0 -43" fill="none" stroke="#bc9555" stroke-width="1" /><path d="M0 27L28 -17" fill="none" stroke="#bc9555" stroke-width="1" /><path d="M0 27L-29 4" fill="none" stroke="#bc9555" stroke-width="1" /><path d="M0 27L28 4" fill="none" stroke="#bc9555" stroke-width="1" /></g><g id="chrys"><g transform="rotate(0.0)"><ellipse cx="0" cy="-20" rx="5.5" ry="16" fill="#bc9555" stroke="#1c2622" stroke-width=".75"/></g><g transform="rotate(18.0)"><ellipse cx="0" cy="-20" rx="5.5" ry="16" fill="#bc9555" stroke="#1c2622" stroke-width=".75"/></g><g transform="rotate(36.0)"><ellipse cx="0" cy="-20" rx="5.5" ry="16" fill="#bc9555" stroke="#1c2622" stroke-width=".75"/></g><g transform="rotate(54.0)"><ellipse cx="0" cy="-20" rx="5.5" ry="16" fill="#bc9555" stroke="#1c2622" stroke-width=".75"/></g><g transform="rotate(72.0)"><ellipse cx="0" cy="-20" rx="5.5" ry="16" fill="#bc9555" stroke="#1c2622" stroke-width=".75"/></g><g transform="rotate(90.0)"><ellipse cx="0" cy="-20" rx="5.5" ry="16" fill="#bc9555" stroke="#1c2622" stroke-width=".75"/></g><g transform="rotate(108.0)"><ellipse cx="0" cy="-20" rx="5.5" ry="16" fill="#bc9555" stroke="#1c2622" stroke-width=".75"/></g><g transform="rotate(126.0)"><ellipse cx="0" cy="-20" rx="5.5" ry="16" fill="#bc9555" stroke="#1c2622" stroke-width=".75"/></g><g transform="rotate(144.0)"><ellipse cx="0" cy="-20" rx="5.5" ry="16" fill="#bc9555" stroke="#1c2622" stroke-width=".75"/></g><g transform="rotate(162.0)"><ellipse cx="0" cy="-20" rx="5.5" ry="16" fill="#bc9555" stroke="#1c2622" stroke-width=".75"/></g><g transform="rotate(180.0)"><ellipse cx="0" cy="-20" rx="5.5" ry="16" fill="#bc9555" stroke="#1c2622" stroke-width=".75"/></g><g transform="rotate(198.0)"><ellipse cx="0" cy="-20" rx="5.5" ry="16" fill="#bc9555" stroke="#1c2622" stroke-width=".75"/></g><g transform="rotate(216.0)"><ellipse cx="0" cy="-20" rx="5.5" ry="16" fill="#bc9555" stroke="#1c2622" stroke-width=".75"/></g><g transform="rotate(234.0)"><ellipse cx="0" cy="-20" rx="5.5" ry="16" fill="#bc9555" stroke="#1c2622" stroke-width=".75"/></g><g transform="rotate(252.0)"><ellipse cx="0" cy="-20" rx="5.5" ry="16" fill="#bc9555" stroke="#1c2622" stroke-width=".75"/></g><g transform="rotate(270.0)"><ellipse cx="0" cy="-20" rx="5.5" ry="16" fill="#bc9555" stroke="#1c2622" stroke-width=".75"/></g><g transform="rotate(288.0)"><ellipse cx="0" cy="-20" rx="5.5" ry="16" fill="#bc9555" stroke="#1c2622" stroke-width=".75"/></g><g transform="rotate(306.0)"><ellipse cx="0" cy="-20" rx="5.5" ry="16" fill="#bc9555" stroke="#1c2622" stroke-width=".75"/></g><g transform="rotate(324.0)"><ellipse cx="0" cy="-20" rx="5.5" ry="16" fill="#bc9555" stroke="#1c2622" stroke-width=".75"/></g><g transform="rotate(342.0)"><ellipse cx="0" cy="-20" rx="5.5" ry="16" fill="#bc9555" stroke="#1c2622" stroke-width=".75"/></g><g transform="rotate(13.0)"><ellipse cx="0" cy="-12" rx="4" ry="12" fill="#bc9555" stroke="#1c2622" stroke-width=".75"/></g><g transform="rotate(35.5)"><ellipse cx="0" cy="-12" rx="4" ry="12" fill="#bc9555" stroke="#1c2622" stroke-width=".75"/></g><g transform="rotate(58.0)"><ellipse cx="0" cy="-12" rx="4" ry="12" fill="#bc9555" stroke="#1c2622" stroke-width=".75"/></g><g transform="rotate(80.5)"><ellipse cx="0" cy="-12" rx="4" ry="12" fill="#bc9555" stroke="#1c2622" stroke-width=".75"/></g><g transform="rotate(103.0)"><ellipse cx="0" cy="-12" rx="4" ry="12" fill="#bc9555" stroke="#1c2622" stroke-width=".75"/></g><g transform="rotate(125.5)"><ellipse cx="0" cy="-12" rx="4" ry="12" fill="#bc9555" stroke="#1c2622" stroke-width=".75"/></g><g transform="rotate(148.0)"><ellipse cx="0" cy="-12" rx="4" ry="12" fill="#bc9555" stroke="#1c2622" stroke-width=".75"/></g><g transform="rotate(170.5)"><ellipse cx="0" cy="-12" rx="4" ry="12" fill="#bc9555" stroke="#1c2622" stroke-width=".75"/></g><g transform="rotate(193.0)"><ellipse cx="0" cy="-12" rx="4" ry="12" fill="#bc9555" stroke="#1c2622" stroke-width=".75"/></g><g transform="rotate(215.5)"><ellipse cx="0" cy="-12" rx="4" ry="12" fill="#bc9555" stroke="#1c2622" stroke-width=".75"/></g><g transform="rotate(238.0)"><ellipse cx="0" cy="-12" rx="4" ry="12" fill="#bc9555" stroke="#1c2622" stroke-width=".75"/></g><g transform="rotate(260.5)"><ellipse cx="0" cy="-12" rx="4" ry="12" fill="#bc9555" stroke="#1c2622" stroke-width=".75"/></g><g transform="rotate(283.0)"><ellipse cx="0" cy="-12" rx="4" ry="12" fill="#bc9555" stroke="#1c2622" stroke-width=".75"/></g><g transform="rotate(305.5)"><ellipse cx="0" cy="-12" rx="4" ry="12" fill="#bc9555" stroke="#1c2622" stroke-width=".75"/></g><g transform="rotate(328.0)"><ellipse cx="0" cy="-12" rx="4" ry="12" fill="#bc9555" stroke="#1c2622" stroke-width=".75"/></g><g transform="rotate(350.5)"><ellipse cx="0" cy="-12" rx="4" ry="12" fill="#bc9555" stroke="#1c2622" stroke-width=".75"/></g><g transform="rotate(26.0)"><ellipse cx="0" cy="-6" rx="3" ry="8" fill="#bc9555" stroke="#1c2622" stroke-width=".75"/></g><g transform="rotate(56.0)"><ellipse cx="0" cy="-6" rx="3" ry="8" fill="#bc9555" stroke="#1c2622" stroke-width=".75"/></g><g transform="rotate(86.0)"><ellipse cx="0" cy="-6" rx="3" ry="8" fill="#bc9555" stroke="#1c2622" stroke-width=".75"/></g><g transform="rotate(116.0)"><ellipse cx="0" cy="-6" rx="3" ry="8" fill="#bc9555" stroke="#1c2622" stroke-width=".75"/></g><g transform="rotate(146.0)"><ellipse cx="0" cy="-6" rx="3" ry="8" fill="#bc9555" stroke="#1c2622" stroke-width=".75"/></g><g transform="rotate(176.0)"><ellipse cx="0" cy="-6" rx="3" ry="8" fill="#bc9555" stroke="#1c2622" stroke-width=".75"/></g><g transform="rotate(206.0)"><ellipse cx="0" cy="-6" rx="3" ry="8" fill="#bc9555" stroke="#1c2622" stroke-width=".75"/></g><g transform="rotate(236.0)"><ellipse cx="0" cy="-6" rx="3" ry="8" fill="#bc9555" stroke="#1c2622" stroke-width=".75"/></g><g transform="rotate(266.0)"><ellipse cx="0" cy="-6" rx="3" ry="8" fill="#bc9555" stroke="#1c2622" stroke-width=".75"/></g><g transform="rotate(296.0)"><ellipse cx="0" cy="-6" rx="3" ry="8" fill="#bc9555" stroke="#1c2622" stroke-width=".75"/></g><g transform="rotate(326.0)"><ellipse cx="0" cy="-6" rx="3" ry="8" fill="#bc9555" stroke="#1c2622" stroke-width=".75"/></g><g transform="rotate(356.0)"><ellipse cx="0" cy="-6" rx="3" ry="8" fill="#bc9555" stroke="#1c2622" stroke-width=".75"/></g><circle cx="0" cy="0" r="5" fill="#c83930" stroke="#1c2622" stroke-width="1"/></g><g id="whitechrys"><g transform="rotate(0.0)"><ellipse cx="0" cy="-20" rx="5.5" ry="16" fill="#fff8e1" stroke="#1c2622" stroke-width=".75"/></g><g transform="rotate(18.0)"><ellipse cx="0" cy="-20" rx="5.5" ry="16" fill="#fff8e1" stroke="#1c2622" stroke-width=".75"/></g><g transform="rotate(36.0)"><ellipse cx="0" cy="-20" rx="5.5" ry="16" fill="#fff8e1" stroke="#1c2622" stroke-width=".75"/></g><g transform="rotate(54.0)"><ellipse cx="0" cy="-20" rx="5.5" ry="16" fill="#fff8e1" stroke="#1c2622" stroke-width=".75"/></g><g transform="rotate(72.0)"><ellipse cx="0" cy="-20" rx="5.5" ry="16" fill="#fff8e1" stroke="#1c2622" stroke-width=".75"/></g><g transform="rotate(90.0)"><ellipse cx="0" cy="-20" rx="5.5" ry="16" fill="#fff8e1" stroke="#1c2622" stroke-width=".75"/></g><g transform="rotate(108.0)"><ellipse cx="0" cy="-20" rx="5.5" ry="16" fill="#fff8e1" stroke="#1c2622" stroke-width=".75"/></g><g transform="rotate(126.0)"><ellipse cx="0" cy="-20" rx="5.5" ry="16" fill="#fff8e1" stroke="#1c2622" stroke-width=".75"/></g><g transform="rotate(144.0)"><ellipse cx="0" cy="-20" rx="5.5" ry="16" fill="#fff8e1" stroke="#1c2622" stroke-width=".75"/></g><g transform="rotate(162.0)"><ellipse cx="0" cy="-20" rx="5.5" ry="16" fill="#fff8e1" stroke="#1c2622" stroke-width=".75"/></g><g transform="rotate(180.0)"><ellipse cx="0" cy="-20" rx="5.5" ry="16" fill="#fff8e1" stroke="#1c2622" stroke-width=".75"/></g><g transform="rotate(198.0)"><ellipse cx="0" cy="-20" rx="5.5" ry="16" fill="#fff8e1" stroke="#1c2622" stroke-width=".75"/></g><g transform="rotate(216.0)"><ellipse cx="0" cy="-20" rx="5.5" ry="16" fill="#fff8e1" stroke="#1c2622" stroke-width=".75"/></g><g transform="rotate(234.0)"><ellipse cx="0" cy="-20" rx="5.5" ry="16" fill="#fff8e1" stroke="#1c2622" stroke-width=".75"/></g><g transform="rotate(252.0)"><ellipse cx="0" cy="-20" rx="5.5" ry="16" fill="#fff8e1" stroke="#1c2622" stroke-width=".75"/></g><g transform="rotate(270.0)"><ellipse cx="0" cy="-20" rx="5.5" ry="16" fill="#fff8e1" stroke="#1c2622" stroke-width=".75"/></g><g transform="rotate(288.0)"><ellipse cx="0" cy="-20" rx="5.5" ry="16" fill="#fff8e1" stroke="#1c2622" stroke-width=".75"/></g><g transform="rotate(306.0)"><ellipse cx="0" cy="-20" rx="5.5" ry="16" fill="#fff8e1" stroke="#1c2622" stroke-width=".75"/></g><g transform="rotate(324.0)"><ellipse cx="0" cy="-20" rx="5.5" ry="16" fill="#fff8e1" stroke="#1c2622" stroke-width=".75"/></g><g transform="rotate(342.0)"><ellipse cx="0" cy="-20" rx="5.5" ry="16" fill="#fff8e1" stroke="#1c2622" stroke-width=".75"/></g><g transform="rotate(13.0)"><ellipse cx="0" cy="-12" rx="4" ry="12" fill="#fff8e1" stroke="#1c2622" stroke-width=".75"/></g><g transform="rotate(35.5)"><ellipse cx="0" cy="-12" rx="4" ry="12" fill="#fff8e1" stroke="#1c2622" stroke-width=".75"/></g><g transform="rotate(58.0)"><ellipse cx="0" cy="-12" rx="4" ry="12" fill="#fff8e1" stroke="#1c2622" stroke-width=".75"/></g><g transform="rotate(80.5)"><ellipse cx="0" cy="-12" rx="4" ry="12" fill="#fff8e1" stroke="#1c2622" stroke-width=".75"/></g><g transform="rotate(103.0)"><ellipse cx="0" cy="-12" rx="4" ry="12" fill="#fff8e1" stroke="#1c2622" stroke-width=".75"/></g><g transform="rotate(125.5)"><ellipse cx="0" cy="-12" rx="4" ry="12" fill="#fff8e1" stroke="#1c2622" stroke-width=".75"/></g><g transform="rotate(148.0)"><ellipse cx="0" cy="-12" rx="4" ry="12" fill="#fff8e1" stroke="#1c2622" stroke-width=".75"/></g><g transform="rotate(170.5)"><ellipse cx="0" cy="-12" rx="4" ry="12" fill="#fff8e1" stroke="#1c2622" stroke-width=".75"/></g><g transform="rotate(193.0)"><ellipse cx="0" cy="-12" rx="4" ry="12" fill="#fff8e1" stroke="#1c2622" stroke-width=".75"/></g><g transform="rotate(215.5)"><ellipse cx="0" cy="-12" rx="4" ry="12" fill="#fff8e1" stroke="#1c2622" stroke-width=".75"/></g><g transform="rotate(238.0)"><ellipse cx="0" cy="-12" rx="4" ry="12" fill="#fff8e1" stroke="#1c2622" stroke-width=".75"/></g><g transform="rotate(260.5)"><ellipse cx="0" cy="-12" rx="4" ry="12" fill="#fff8e1" stroke="#1c2622" stroke-width=".75"/></g><g transform="rotate(283.0)"><ellipse cx="0" cy="-12" rx="4" ry="12" fill="#fff8e1" stroke="#1c2622" stroke-width=".75"/></g><g transform="rotate(305.5)"><ellipse cx="0" cy="-12" rx="4" ry="12" fill="#fff8e1" stroke="#1c2622" stroke-width=".75"/></g><g transform="rotate(328.0)"><ellipse cx="0" cy="-12" rx="4" ry="12" fill="#fff8e1" stroke="#1c2622" stroke-width=".75"/></g><g transform="rotate(350.5)"><ellipse cx="0" cy="-12" rx="4" ry="12" fill="#fff8e1" stroke="#1c2622" stroke-width=".75"/></g><g transform="rotate(26.0)"><ellipse cx="0" cy="-6" rx="3" ry="8" fill="#fff8e1" stroke="#1c2622" stroke-width=".75"/></g><g transform="rotate(56.0)"><ellipse cx="0" cy="-6" rx="3" ry="8" fill="#fff8e1" stroke="#1c2622" stroke-width=".75"/></g><g transform="rotate(86.0)"><ellipse cx="0" cy="-6" rx="3" ry="8" fill="#fff8e1" stroke="#1c2622" stroke-width=".75"/></g><g transform="rotate(116.0)"><ellipse cx="0" cy="-6" rx="3" ry="8" fill="#fff8e1" stroke="#1c2622" stroke-width=".75"/></g><g transform="rotate(146.0)"><ellipse cx="0" cy="-6" rx="3" ry="8" fill="#fff8e1" stroke="#1c2622" stroke-width=".75"/></g><g transform="rotate(176.0)"><ellipse cx="0" cy="-6" rx="3" ry="8" fill="#fff8e1" stroke="#1c2622" stroke-width=".75"/></g><g transform="rotate(206.0)"><ellipse cx="0" cy="-6" rx="3" ry="8" fill="#fff8e1" stroke="#1c2622" stroke-width=".75"/></g><g transform="rotate(236.0)"><ellipse cx="0" cy="-6" rx="3" ry="8" fill="#fff8e1" stroke="#1c2622" stroke-width=".75"/></g><g transform="rotate(266.0)"><ellipse cx="0" cy="-6" rx="3" ry="8" fill="#fff8e1" stroke="#1c2622" stroke-width=".75"/></g><g transform="rotate(296.0)"><ellipse cx="0" cy="-6" rx="3" ry="8" fill="#fff8e1" stroke="#1c2622" stroke-width=".75"/></g><g transform="rotate(326.0)"><ellipse cx="0" cy="-6" rx="3" ry="8" fill="#fff8e1" stroke="#1c2622" stroke-width=".75"/></g><g transform="rotate(356.0)"><ellipse cx="0" cy="-6" rx="3" ry="8" fill="#fff8e1" stroke="#1c2622" stroke-width=".75"/></g><circle cx="0" cy="0" r="5" fill="#c83930" stroke="#1c2622" stroke-width="1"/></g><g id="peony"><g transform="rotate(0.0) translate(0 -20) scale(1)"><path d="M0 6C-19 0-21-15-13-20C-15-34-1-37 5-28C16-37 25-23 16-13C24-4 13 5 0 6" fill="#fff8e1" stroke="#1c2622" stroke-width="1.2" /></g><g transform="rotate(40.0) translate(0 -20) scale(1)"><path d="M0 6C-19 0-21-15-13-20C-15-34-1-37 5-28C16-37 25-23 16-13C24-4 13 5 0 6" fill="#fff8e1" stroke="#1c2622" stroke-width="1.2" /></g><g transform="rotate(80.0) translate(0 -20) scale(1)"><path d="M0 6C-19 0-21-15-13-20C-15-34-1-37 5-28C16-37 25-23 16-13C24-4 13 5 0 6" fill="#fff8e1" stroke="#1c2622" stroke-width="1.2" /></g><g transform="rotate(120.0) translate(0 -20) scale(1)"><path d="M0 6C-19 0-21-15-13-20C-15-34-1-37 5-28C16-37 25-23 16-13C24-4 13 5 0 6" fill="#fff8e1" stroke="#1c2622" stroke-width="1.2" /></g><g transform="rotate(160.0) translate(0 -20) scale(1)"><path d="M0 6C-19 0-21-15-13-20C-15-34-1-37 5-28C16-37 25-23 16-13C24-4 13 5 0 6" fill="#fff8e1" stroke="#1c2622" stroke-width="1.2" /></g><g transform="rotate(200.0) translate(0 -20) scale(1)"><path d="M0 6C-19 0-21-15-13-20C-15-34-1-37 5-28C16-37 25-23 16-13C24-4 13 5 0 6" fill="#fff8e1" stroke="#1c2622" stroke-width="1.2" /></g><g transform="rotate(240.0) translate(0 -20) scale(1)"><path d="M0 6C-19 0-21-15-13-20C-15-34-1-37 5-28C16-37 25-23 16-13C24-4 13 5 0 6" fill="#fff8e1" stroke="#1c2622" stroke-width="1.2" /></g><g transform="rotate(280.0) translate(0 -20) scale(1)"><path d="M0 6C-19 0-21-15-13-20C-15-34-1-37 5-28C16-37 25-23 16-13C24-4 13 5 0 6" fill="#fff8e1" stroke="#1c2622" stroke-width="1.2" /></g><g transform="rotate(320.0) translate(0 -20) scale(1)"><path d="M0 6C-19 0-21-15-13-20C-15-34-1-37 5-28C16-37 25-23 16-13C24-4 13 5 0 6" fill="#fff8e1" stroke="#1c2622" stroke-width="1.2" /></g><g transform="rotate(22.0) translate(0 -11) scale(0.78)"><path d="M0 6C-19 0-21-15-13-20C-15-34-1-37 5-28C16-37 25-23 16-13C24-4 13 5 0 6" fill="#c83930" stroke="#1c2622" stroke-width="1.2" /></g><g transform="rotate(73.42857142857143) translate(0 -11) scale(0.78)"><path d="M0 6C-19 0-21-15-13-20C-15-34-1-37 5-28C16-37 25-23 16-13C24-4 13 5 0 6" fill="#c83930" stroke="#1c2622" stroke-width="1.2" /></g><g transform="rotate(124.85714285714286) translate(0 -11) scale(0.78)"><path d="M0 6C-19 0-21-15-13-20C-15-34-1-37 5-28C16-37 25-23 16-13C24-4 13 5 0 6" fill="#c83930" stroke="#1c2622" stroke-width="1.2" /></g><g transform="rotate(176.28571428571428) translate(0 -11) scale(0.78)"><path d="M0 6C-19 0-21-15-13-20C-15-34-1-37 5-28C16-37 25-23 16-13C24-4 13 5 0 6" fill="#c83930" stroke="#1c2622" stroke-width="1.2" /></g><g transform="rotate(227.71428571428572) translate(0 -11) scale(0.78)"><path d="M0 6C-19 0-21-15-13-20C-15-34-1-37 5-28C16-37 25-23 16-13C24-4 13 5 0 6" fill="#c83930" stroke="#1c2622" stroke-width="1.2" /></g><g transform="rotate(279.14285714285717) translate(0 -11) scale(0.78)"><path d="M0 6C-19 0-21-15-13-20C-15-34-1-37 5-28C16-37 25-23 16-13C24-4 13 5 0 6" fill="#c83930" stroke="#1c2622" stroke-width="1.2" /></g><g transform="rotate(330.57142857142856) translate(0 -11) scale(0.78)"><path d="M0 6C-19 0-21-15-13-20C-15-34-1-37 5-28C16-37 25-23 16-13C24-4 13 5 0 6" fill="#c83930" stroke="#1c2622" stroke-width="1.2" /></g><g transform="rotate(44.0) translate(0 -4) scale(0.6)"><path d="M0 6C-19 0-21-15-13-20C-15-34-1-37 5-28C16-37 25-23 16-13C24-4 13 5 0 6" fill="#fff8e1" stroke="#1c2622" stroke-width="1.2" /></g><g transform="rotate(116.0) translate(0 -4) scale(0.6)"><path d="M0 6C-19 0-21-15-13-20C-15-34-1-37 5-28C16-37 25-23 16-13C24-4 13 5 0 6" fill="#fff8e1" stroke="#1c2622" stroke-width="1.2" /></g><g transform="rotate(188.0) translate(0 -4) scale(0.6)"><path d="M0 6C-19 0-21-15-13-20C-15-34-1-37 5-28C16-37 25-23 16-13C24-4 13 5 0 6" fill="#fff8e1" stroke="#1c2622" stroke-width="1.2" /></g><g transform="rotate(260.0) translate(0 -4) scale(0.6)"><path d="M0 6C-19 0-21-15-13-20C-15-34-1-37 5-28C16-37 25-23 16-13C24-4 13 5 0 6" fill="#fff8e1" stroke="#1c2622" stroke-width="1.2" /></g><g transform="rotate(332.0) translate(0 -4) scale(0.6)"><path d="M0 6C-19 0-21-15-13-20C-15-34-1-37 5-28C16-37 25-23 16-13C24-4 13 5 0 6" fill="#fff8e1" stroke="#1c2622" stroke-width="1.2" /></g><circle cx="0" cy="0" r="5" fill="#bc9555" stroke="#1c2622" stroke-width="1"/></g><g id="leaf"><path d="M0 0C-6-21 6-39 23-48C28-24 15-7 0 0" fill="#254236" stroke="#1c2622" stroke-width="1.3" /><path d="M1-1L21-43" fill="none" stroke="#bc9555" stroke-width="0.7" /></g><g id="iris"><path d="M0 0C-24-8-41-28-23-39C-12-41-3-20 0-11C4-25 9-50 23-41C40-24 14-6 0 0" fill="#726386" stroke="#1c2622" stroke-width="1.7" /><path d="M0-5C-6-36-21-56-8-63C8-69 11-40 0-5" fill="#726386" stroke="#1c2622" stroke-width="1.7" /><path d="M0-4C-12-19-34-18-40-3C-34 16-9 4 0-4M0-4C9-20 32-18 40-3C33 17 10 6 0-4" fill="#726386" stroke="#1c2622" stroke-width="1.7" /><path d="M-4-4L-31-2L-16 3ZM4-4L31-2L16 3Z" fill="#bc9555" /><path d="M0-7L-5-31L0-43L5-30Z" fill="#bc9555" /></g><g id="clover"><g transform="translate(0 0)"><path d="M0 0C-24 2-30-15-23-24C-6-24 1-13 0 0M0 0C24 2 30-15 23-24C6-24-1-13 0 0" fill="#254236" stroke="#1c2622" stroke-width="1" /></g><g transform="translate(0 -12)"><path d="M0 0C-24 2-30-15-23-24C-6-24 1-13 0 0M0 0C24 2 30-15 23-24C6-24-1-13 0 0" fill="#254236" stroke="#1c2622" stroke-width="1" /></g><g transform="translate(0 -24)"><path d="M0 0C-24 2-30-15-23-24C-6-24 1-13 0 0M0 0C24 2 30-15 23-24C6-24-1-13 0 0" fill="#254236" stroke="#1c2622" stroke-width="1" /></g><path d="M0 12L0-64" fill="none" stroke="#1c2622" stroke-width="2" /><ellipse cx="-6" cy="-46" rx="4.5" ry="7.5" fill="#c83930" stroke="#1c2622" stroke-width=".6"/><ellipse cx="1" cy="-43" rx="4.5" ry="7.5" fill="#c83930" stroke="#1c2622" stroke-width=".6"/><ellipse cx="8" cy="-40" rx="4.5" ry="7.5" fill="#c83930" stroke="#1c2622" stroke-width=".6"/><ellipse cx="-6" cy="-58" rx="4.5" ry="7.5" fill="#c83930" stroke="#1c2622" stroke-width=".6"/><ellipse cx="1" cy="-55" rx="4.5" ry="7.5" fill="#c83930" stroke="#1c2622" stroke-width=".6"/><ellipse cx="8" cy="-52" rx="4.5" ry="7.5" fill="#c83930" stroke="#1c2622" stroke-width=".6"/><ellipse cx="-6" cy="-70" rx="4.5" ry="7.5" fill="#c83930" stroke="#1c2622" stroke-width=".6"/><ellipse cx="1" cy="-67" rx="4.5" ry="7.5" fill="#c83930" stroke="#1c2622" stroke-width=".6"/><ellipse cx="8" cy="-64" rx="4.5" ry="7.5" fill="#c83930" stroke="#1c2622" stroke-width=".6"/></g><g id="paul"><path d="M0 48C-28 23-47-8-25-25C-16-43 0-30 0-17C2-39 29-40 34-18C57 1 35 27 0 48" fill="#254236" stroke="#1c2622" stroke-width="1.4" /><path d="M0 3L-23 -20M0 3L27 -20" fill="none" stroke="#bc9555" stroke-width="0.8" /><path d="M0 16L-23 -7M0 16L27 -7" fill="none" stroke="#bc9555" stroke-width="0.8" /><path d="M0 29L-14 6M0 29L15 6" fill="none" stroke="#bc9555" stroke-width="0.8" /><path d="M0 42L-14 19M0 42L15 19" fill="none" stroke="#bc9555" stroke-width="0.8" /><path d="M0 45V-22" fill="none" stroke="#bc9555" stroke-width="1.2" /></g><g id="butterfly"><path d="M0 2C-17-37-44-32-37-7C-48 9-22 27-3 11M0 2C17-37 44-32 37-7C48 9 22 27 3 11" fill="#fff8e1" stroke="#1c2622" stroke-width="2" /><g transform="scale(-1 1)"><path d="M4 0C14-20 31-23 31-8L8 3M7 6C25 0 34 11 22 16Z" fill="#bc9555" stroke="#1c2622" stroke-width="1" /><path d="M10 1L28-13M12 8L25 12" fill="none" stroke="#1c2622" stroke-width="1" /></g><g transform="scale(1 1)"><path d="M4 0C14-20 31-23 31-8L8 3M7 6C25 0 34 11 22 16Z" fill="#bc9555" stroke="#1c2622" stroke-width="1" /><path d="M10 1L28-13M12 8L25 12" fill="none" stroke="#1c2622" stroke-width="1" /></g><path d="M0-8V16M0-7L-8-20M0-7L8-20" fill="none" stroke="#1c2622" stroke-width="3" /></g><g id="petal"><path d="M0 0C-14-4-14-17-4-24L0-19L5-23C16-10 9-1 0 0" fill="#c83930" stroke="#1c2622" stroke-width="0.7" /></g><g id="goose"><path d="M-36 1Q-14-20 0-2Q17-24 37-18Q17-6 9 6L14 14L0 10Q-10 10-16 5Z" fill="#1c2622" /><path d="M-28 0L-10-3L-1 4M11 0L29-13" fill="none" stroke="#fff8e1" stroke-width="1.8" /></g></defs><rect width="240" height="380" rx="12" fill="#1c2622"/><rect x="6" y="6" width="228" height="368" rx="7" fill="#bc9555"/><rect x="9" y="9" width="222" height="362" rx="4" fill="url(#paper)"/><g clip-path="url(#face)"><g opacity=".25"><circle cx="160" cy="111" r="0.8" fill="#bc9555"/><circle cx="103" cy="251" r="0.4" fill="#bc9555"/><circle cx="181" cy="269" r="0.4" fill="#bc9555"/><circle cx="166" cy="125" r="0.6" fill="#bc9555"/><circle cx="136" cy="366" r="0.4" fill="#bc9555"/><circle cx="96" cy="236" r="0.4" fill="#bc9555"/><circle cx="77" cy="110" r="0.4" fill="#bc9555"/><circle cx="34" cy="239" r="0.8" fill="#bc9555"/><circle cx="105" cy="110" r="0.6" fill="#bc9555"/><circle cx="213" cy="178" r="0.4" fill="#bc9555"/><circle cx="175" cy="218" r="0.6" fill="#bc9555"/><circle cx="65" cy="44" r="0.6" fill="#bc9555"/><circle cx="131" cy="167" r="0.4" fill="#bc9555"/><circle cx="40" cy="345" r="0.8" fill="#bc9555"/><circle cx="186" cy="180" r="0.8" fill="#bc9555"/><circle cx="80" cy="214" r="0.6" fill="#bc9555"/><circle cx="70" cy="228" r="0.4" fill="#bc9555"/><circle cx="115" cy="354" r="0.6" fill="#bc9555"/><circle cx="13" cy="249" r="0.4" fill="#bc9555"/><circle cx="148" cy="60" r="0.6" fill="#bc9555"/><circle cx="215" cy="23" r="0.6" fill="#bc9555"/><circle cx="192" cy="196" r="0.4" fill="#bc9555"/><circle cx="79" cy="300" r="0.4" fill="#bc9555"/><circle cx="20" cy="233" r="0.4" fill="#bc9555"/><circle cx="83" cy="45" r="0.4" fill="#bc9555"/><circle cx="115" cy="362" r="0.8" fill="#bc9555"/><circle cx="223" cy="197" r="0.8" fill="#bc9555"/><circle cx="157" cy="255" r="0.4" fill="#bc9555"/><circle cx="139" cy="273" r="0.6" fill="#bc9555"/><circle cx="58" cy="365" r="0.8" fill="#bc9555"/><circle cx="186" cy="15" r="0.4" fill="#bc9555"/><circle cx="28" cy="28" r="0.8" fill="#bc9555"/><circle cx="100" cy="285" r="0.8" fill="#bc9555"/><circle cx="125" cy="72" r="0.8" fill="#bc9555"/><circle cx="192" cy="324" r="0.8" fill="#bc9555"/><circle cx="219" cy="247" r="0.8" fill="#bc9555"/><circle cx="47" cy="363" r="0.4" fill="#bc9555"/><circle cx="214" cy="114" r="0.8" fill="#bc9555"/><circle cx="152" cy="240" r="0.4" fill="#bc9555"/><circle cx="32" cy="88" r="0.6" fill="#bc9555"/><circle cx="98" cy="204" r="0.4" fill="#bc9555"/><circle cx="27" cy="292" r="0.8" fill="#bc9555"/><circle cx="188" cy="191" r="0.6" fill="#bc9555"/><circle cx="26" cy="110" r="0.6" fill="#bc9555"/><circle cx="185" cy="179" r="0.4" fill="#bc9555"/><circle cx="83" cy="90" r="0.6" fill="#bc9555"/><circle cx="131" cy="116" r="0.6" fill="#bc9555"/><circle cx="40" cy="280" r="0.6" fill="#bc9555"/><circle cx="74" cy="60" r="0.6" fill="#bc9555"/><circle cx="179" cy="102" r="0.4" fill="#bc9555"/><circle cx="15" cy="336" r="0.6" fill="#bc9555"/><circle cx="168" cy="246" r="0.8" fill="#bc9555"/><circle cx="157" cy="34" r="0.6" fill="#bc9555"/><circle cx="73" cy="151" r="0.6" fill="#bc9555"/><circle cx="181" cy="112" r="0.8" fill="#bc9555"/><circle cx="163" cy="286" r="0.6" fill="#bc9555"/><circle cx="97" cy="21" r="0.4" fill="#bc9555"/><circle cx="85" cy="188" r="0.8" fill="#bc9555"/><circle cx="105" cy="218" r="0.6" fill="#bc9555"/><circle cx="175" cy="39" r="0.8" fill="#bc9555"/><circle cx="68" cy="276" r="0.4" fill="#bc9555"/><circle cx="67" cy="87" r="0.8" fill="#bc9555"/><circle cx="42" cy="86" r="0.6" fill="#bc9555"/><circle cx="43" cy="201" r="0.4" fill="#bc9555"/><circle cx="126" cy="352" r="0.4" fill="#bc9555"/><circle cx="185" cy="355" r="0.8" fill="#bc9555"/><circle cx="222" cy="198" r="0.8" fill="#bc9555"/><circle cx="181" cy="332" r="0.8" fill="#bc9555"/><circle cx="65" cy="77" r="0.6" fill="#bc9555"/><circle cx="151" cy="296" r="0.6" fill="#bc9555"/><circle cx="88" cy="358" r="0.6" fill="#bc9555"/><circle cx="200" cy="142" r="0.4" fill="#bc9555"/><circle cx="123" cy="116" r="0.6" fill="#bc9555"/><circle cx="88" cy="32" r="0.4" fill="#bc9555"/><circle cx="24" cy="308" r="0.6" fill="#bc9555"/><circle cx="201" cy="236" r="0.6" fill="#bc9555"/><circle cx="182" cy="38" r="0.6" fill="#bc9555"/><circle cx="153" cy="116" r="0.4" fill="#bc9555"/><circle cx="209" cy="250" r="0.8" fill="#bc9555"/><circle cx="227" cy="41" r="0.4" fill="#bc9555"/><circle cx="117" cy="243" r="0.8" fill="#bc9555"/><circle cx="82" cy="327" r="0.4" fill="#bc9555"/><circle cx="136" cy="337" r="0.4" fill="#bc9555"/><circle cx="21" cy="366" r="0.6" fill="#bc9555"/><circle cx="166" cy="338" r="0.4" fill="#bc9555"/><circle cx="188" cy="56" r="0.8" fill="#bc9555"/><circle cx="216" cy="242" r="0.6" fill="#bc9555"/><circle cx="145" cy="49" r="0.4" fill="#bc9555"/><circle cx="132" cy="225" r="0.4" fill="#bc9555"/><circle cx="79" cy="15" r="0.4" fill="#bc9555"/></g><path d="M10 259Q55 173 123 232Q182 187 230 261V370H10Z" fill="#1c2622" /><path d="M10 291Q83 236 142 290Q207 243 230 284V370H10Z" fill="#254236" stroke="#1c2622" stroke-width="1" /><path d="M-1 382Q17 311 8 271" fill="none" stroke="#bc9555" stroke-width="1.1" /><path d="M9.0 271l-8 -7M9.0 271l7 -9" fill="none" stroke="#f2e8cb" stroke-width="0.9" /><path d="M9.7 276l-11 -7M9.7 276l9 -9" fill="none" stroke="#f2e8cb" stroke-width="0.9" /><path d="M10.4 281l-14 -7M10.4 281l11 -9" fill="none" stroke="#f2e8cb" stroke-width="0.9" /><path d="M11.1 286l-8 -7M11.1 286l13 -9" fill="none" stroke="#f2e8cb" stroke-width="0.9" /><path d="M11.8 291l-11 -7M11.8 291l7 -9" fill="none" stroke="#f2e8cb" stroke-width="0.9" /><path d="M12.5 296l-14 -7M12.5 296l9 -9" fill="none" stroke="#f2e8cb" stroke-width="0.9" /><path d="M13.2 301l-8 -7M13.2 301l11 -9" fill="none" stroke="#f2e8cb" stroke-width="0.9" /><path d="M13.899999999999999 306l-11 -7M13.899999999999999 306l13 -9" fill="none" stroke="#f2e8cb" stroke-width="0.9" /><path d="M14.6 311l-14 -7M14.6 311l7 -9" fill="none" stroke="#f2e8cb" stroke-width="0.9" /><path d="M13 382Q38 280 29 240" fill="none" stroke="#bc9555" stroke-width="1.1" /><path d="M30.0 240l-8 -7M30.0 240l7 -9" fill="none" stroke="#f2e8cb" stroke-width="0.9" /><path d="M30.7 245l-11 -7M30.7 245l9 -9" fill="none" stroke="#f2e8cb" stroke-width="0.9" /><path d="M31.4 250l-14 -7M31.4 250l11 -9" fill="none" stroke="#f2e8cb" stroke-width="0.9" /><path d="M32.1 255l-8 -7M32.1 255l13 -9" fill="none" stroke="#f2e8cb" stroke-width="0.9" /><path d="M32.8 260l-11 -7M32.8 260l7 -9" fill="none" stroke="#f2e8cb" stroke-width="0.9" /><path d="M33.5 265l-14 -7M33.5 265l9 -9" fill="none" stroke="#f2e8cb" stroke-width="0.9" /><path d="M34.2 270l-8 -7M34.2 270l11 -9" fill="none" stroke="#f2e8cb" stroke-width="0.9" /><path d="M34.9 275l-11 -7M34.9 275l13 -9" fill="none" stroke="#f2e8cb" stroke-width="0.9" /><path d="M35.6 280l-14 -7M35.6 280l7 -9" fill="none" stroke="#f2e8cb" stroke-width="0.9" /><path d="M27 382Q59 249 50 209" fill="none" stroke="#bc9555" stroke-width="1.1" /><path d="M51.0 209l-8 -7M51.0 209l7 -9" fill="none" stroke="#f2e8cb" stroke-width="0.9" /><path d="M51.7 214l-11 -7M51.7 214l9 -9" fill="none" stroke="#f2e8cb" stroke-width="0.9" /><path d="M52.4 219l-14 -7M52.4 219l11 -9" fill="none" stroke="#f2e8cb" stroke-width="0.9" /><path d="M53.1 224l-8 -7M53.1 224l13 -9" fill="none" stroke="#f2e8cb" stroke-width="0.9" /><path d="M53.8 229l-11 -7M53.8 229l7 -9" fill="none" stroke="#f2e8cb" stroke-width="0.9" /><path d="M54.5 234l-14 -7M54.5 234l9 -9" fill="none" stroke="#f2e8cb" stroke-width="0.9" /><path d="M55.2 239l-8 -7M55.2 239l11 -9" fill="none" stroke="#f2e8cb" stroke-width="0.9" /><path d="M55.9 244l-11 -7M55.9 244l13 -9" fill="none" stroke="#f2e8cb" stroke-width="0.9" /><path d="M56.6 249l-14 -7M56.6 249l7 -9" fill="none" stroke="#f2e8cb" stroke-width="0.9" /><path d="M41 382Q80 297 71 257" fill="none" stroke="#bc9555" stroke-width="1.1" /><path d="M72.0 257l-8 -7M72.0 257l7 -9" fill="none" stroke="#f2e8cb" stroke-width="0.9" /><path d="M72.7 262l-11 -7M72.7 262l9 -9" fill="none" stroke="#f2e8cb" stroke-width="0.9" /><path d="M73.4 267l-14 -7M73.4 267l11 -9" fill="none" stroke="#f2e8cb" stroke-width="0.9" /><path d="M74.1 272l-8 -7M74.1 272l13 -9" fill="none" stroke="#f2e8cb" stroke-width="0.9" /><path d="M74.8 277l-11 -7M74.8 277l7 -9" fill="none" stroke="#f2e8cb" stroke-width="0.9" /><path d="M75.5 282l-14 -7M75.5 282l9 -9" fill="none" stroke="#f2e8cb" stroke-width="0.9" /><path d="M76.2 287l-8 -7M76.2 287l11 -9" fill="none" stroke="#f2e8cb" stroke-width="0.9" /><path d="M76.9 292l-11 -7M76.9 292l13 -9" fill="none" stroke="#f2e8cb" stroke-width="0.9" /><path d="M77.6 297l-14 -7M77.6 297l7 -9" fill="none" stroke="#f2e8cb" stroke-width="0.9" /><path d="M55 382Q73 266 64 226" fill="none" stroke="#bc9555" stroke-width="1.1" /><path d="M65.0 226l-8 -7M65.0 226l7 -9" fill="none" stroke="#f2e8cb" stroke-width="0.9" /><path d="M65.7 231l-11 -7M65.7 231l9 -9" fill="none" stroke="#f2e8cb" stroke-width="0.9" /><path d="M66.4 236l-14 -7M66.4 236l11 -9" fill="none" stroke="#f2e8cb" stroke-width="0.9" /><path d="M67.1 241l-8 -7M67.1 241l13 -9" fill="none" stroke="#f2e8cb" stroke-width="0.9" /><path d="M67.8 246l-11 -7M67.8 246l7 -9" fill="none" stroke="#f2e8cb" stroke-width="0.9" /><path d="M68.5 251l-14 -7M68.5 251l9 -9" fill="none" stroke="#f2e8cb" stroke-width="0.9" /><path d="M69.2 256l-8 -7M69.2 256l11 -9" fill="none" stroke="#f2e8cb" stroke-width="0.9" /><path d="M69.9 261l-11 -7M69.9 261l13 -9" fill="none" stroke="#f2e8cb" stroke-width="0.9" /><path d="M70.6 266l-14 -7M70.6 266l7 -9" fill="none" stroke="#f2e8cb" stroke-width="0.9" /><path d="M69 382Q94 314 85 274" fill="none" stroke="#bc9555" stroke-width="1.1" /><path d="M86.0 274l-8 -7M86.0 274l7 -9" fill="none" stroke="#f2e8cb" stroke-width="0.9" /><path d="M86.7 279l-11 -7M86.7 279l9 -9" fill="none" stroke="#f2e8cb" stroke-width="0.9" /><path d="M87.4 284l-14 -7M87.4 284l11 -9" fill="none" stroke="#f2e8cb" stroke-width="0.9" /><path d="M88.1 289l-8 -7M88.1 289l13 -9" fill="none" stroke="#f2e8cb" stroke-width="0.9" /><path d="M88.8 294l-11 -7M88.8 294l7 -9" fill="none" stroke="#f2e8cb" stroke-width="0.9" /><path d="M89.5 299l-14 -7M89.5 299l9 -9" fill="none" stroke="#f2e8cb" stroke-width="0.9" /><path d="M90.2 304l-8 -7M90.2 304l11 -9" fill="none" stroke="#f2e8cb" stroke-width="0.9" /><path d="M90.9 309l-11 -7M90.9 309l13 -9" fill="none" stroke="#f2e8cb" stroke-width="0.9" /><path d="M91.6 314l-14 -7M91.6 314l7 -9" fill="none" stroke="#f2e8cb" stroke-width="0.9" /><path d="M83 382Q115 283 106 243" fill="none" stroke="#bc9555" stroke-width="1.1" /><path d="M107.0 243l-8 -7M107.0 243l7 -9" fill="none" stroke="#f2e8cb" stroke-width="0.9" /><path d="M107.7 248l-11 -7M107.7 248l9 -9" fill="none" stroke="#f2e8cb" stroke-width="0.9" /><path d="M108.4 253l-14 -7M108.4 253l11 -9" fill="none" stroke="#f2e8cb" stroke-width="0.9" /><path d="M109.1 258l-8 -7M109.1 258l13 -9" fill="none" stroke="#f2e8cb" stroke-width="0.9" /><path d="M109.8 263l-11 -7M109.8 263l7 -9" fill="none" stroke="#f2e8cb" stroke-width="0.9" /><path d="M110.5 268l-14 -7M110.5 268l9 -9" fill="none" stroke="#f2e8cb" stroke-width="0.9" /><path d="M111.2 273l-8 -7M111.2 273l11 -9" fill="none" stroke="#f2e8cb" stroke-width="0.9" /><path d="M111.9 278l-11 -7M111.9 278l13 -9" fill="none" stroke="#f2e8cb" stroke-width="0.9" /><path d="M112.6 283l-14 -7M112.6 283l7 -9" fill="none" stroke="#f2e8cb" stroke-width="0.9" /><path d="M97 382Q136 252 127 212" fill="none" stroke="#bc9555" stroke-width="1.1" /><path d="M128.0 212l-8 -7M128.0 212l7 -9" fill="none" stroke="#f2e8cb" stroke-width="0.9" /><path d="M128.7 217l-11 -7M128.7 217l9 -9" fill="none" stroke="#f2e8cb" stroke-width="0.9" /><path d="M129.4 222l-14 -7M129.4 222l11 -9" fill="none" stroke="#f2e8cb" stroke-width="0.9" /><path d="M130.1 227l-8 -7M130.1 227l13 -9" fill="none" stroke="#f2e8cb" stroke-width="0.9" /><path d="M130.8 232l-11 -7M130.8 232l7 -9" fill="none" stroke="#f2e8cb" stroke-width="0.9" /><path d="M131.5 237l-14 -7M131.5 237l9 -9" fill="none" stroke="#f2e8cb" stroke-width="0.9" /><path d="M132.2 242l-8 -7M132.2 242l11 -9" fill="none" stroke="#f2e8cb" stroke-width="0.9" /><path d="M132.9 247l-11 -7M132.9 247l13 -9" fill="none" stroke="#f2e8cb" stroke-width="0.9" /><path d="M133.6 252l-14 -7M133.6 252l7 -9" fill="none" stroke="#f2e8cb" stroke-width="0.9" /><path d="M111 382Q129 300 120 260" fill="none" stroke="#bc9555" stroke-width="1.1" /><path d="M121.0 260l-8 -7M121.0 260l7 -9" fill="none" stroke="#f2e8cb" stroke-width="0.9" /><path d="M121.7 265l-11 -7M121.7 265l9 -9" fill="none" stroke="#f2e8cb" stroke-width="0.9" /><path d="M122.4 270l-14 -7M122.4 270l11 -9" fill="none" stroke="#f2e8cb" stroke-width="0.9" /><path d="M123.1 275l-8 -7M123.1 275l13 -9" fill="none" stroke="#f2e8cb" stroke-width="0.9" /><path d="M123.8 280l-11 -7M123.8 280l7 -9" fill="none" stroke="#f2e8cb" stroke-width="0.9" /><path d="M124.5 285l-14 -7M124.5 285l9 -9" fill="none" stroke="#f2e8cb" stroke-width="0.9" /><path d="M125.2 290l-8 -7M125.2 290l11 -9" fill="none" stroke="#f2e8cb" stroke-width="0.9" /><path d="M125.9 295l-11 -7M125.9 295l13 -9" fill="none" stroke="#f2e8cb" stroke-width="0.9" /><path d="M126.6 300l-14 -7M126.6 300l7 -9" fill="none" stroke="#f2e8cb" stroke-width="0.9" /><path d="M125 382Q150 269 141 229" fill="none" stroke="#bc9555" stroke-width="1.1" /><path d="M142.0 229l-8 -7M142.0 229l7 -9" fill="none" stroke="#f2e8cb" stroke-width="0.9" /><path d="M142.7 234l-11 -7M142.7 234l9 -9" fill="none" stroke="#f2e8cb" stroke-width="0.9" /><path d="M143.4 239l-14 -7M143.4 239l11 -9" fill="none" stroke="#f2e8cb" stroke-width="0.9" /><path d="M144.1 244l-8 -7M144.1 244l13 -9" fill="none" stroke="#f2e8cb" stroke-width="0.9" /><path d="M144.8 249l-11 -7M144.8 249l7 -9" fill="none" stroke="#f2e8cb" stroke-width="0.9" /><path d="M145.5 254l-14 -7M145.5 254l9 -9" fill="none" stroke="#f2e8cb" stroke-width="0.9" /><path d="M146.2 259l-8 -7M146.2 259l11 -9" fill="none" stroke="#f2e8cb" stroke-width="0.9" /><path d="M146.9 264l-11 -7M146.9 264l13 -9" fill="none" stroke="#f2e8cb" stroke-width="0.9" /><path d="M147.6 269l-14 -7M147.6 269l7 -9" fill="none" stroke="#f2e8cb" stroke-width="0.9" /><path d="M139 382Q171 317 162 277" fill="none" stroke="#bc9555" stroke-width="1.1" /><path d="M163.0 277l-8 -7M163.0 277l7 -9" fill="none" stroke="#f2e8cb" stroke-width="0.9" /><path d="M163.7 282l-11 -7M163.7 282l9 -9" fill="none" stroke="#f2e8cb" stroke-width="0.9" /><path d="M164.4 287l-14 -7M164.4 287l11 -9" fill="none" stroke="#f2e8cb" stroke-width="0.9" /><path d="M165.1 292l-8 -7M165.1 292l13 -9" fill="none" stroke="#f2e8cb" stroke-width="0.9" /><path d="M165.8 297l-11 -7M165.8 297l7 -9" fill="none" stroke="#f2e8cb" stroke-width="0.9" /><path d="M166.5 302l-14 -7M166.5 302l9 -9" fill="none" stroke="#f2e8cb" stroke-width="0.9" /><path d="M167.2 307l-8 -7M167.2 307l11 -9" fill="none" stroke="#f2e8cb" stroke-width="0.9" /><path d="M167.9 312l-11 -7M167.9 312l13 -9" fill="none" stroke="#f2e8cb" stroke-width="0.9" /><path d="M168.6 317l-14 -7M168.6 317l7 -9" fill="none" stroke="#f2e8cb" stroke-width="0.9" /><path d="M153 382Q192 286 183 246" fill="none" stroke="#bc9555" stroke-width="1.1" /><path d="M184.0 246l-8 -7M184.0 246l7 -9" fill="none" stroke="#f2e8cb" stroke-width="0.9" /><path d="M184.7 251l-11 -7M184.7 251l9 -9" fill="none" stroke="#f2e8cb" stroke-width="0.9" /><path d="M185.4 256l-14 -7M185.4 256l11 -9" fill="none" stroke="#f2e8cb" stroke-width="0.9" /><path d="M186.1 261l-8 -7M186.1 261l13 -9" fill="none" stroke="#f2e8cb" stroke-width="0.9" /><path d="M186.8 266l-11 -7M186.8 266l7 -9" fill="none" stroke="#f2e8cb" stroke-width="0.9" /><path d="M187.5 271l-14 -7M187.5 271l9 -9" fill="none" stroke="#f2e8cb" stroke-width="0.9" /><path d="M188.2 276l-8 -7M188.2 276l11 -9" fill="none" stroke="#f2e8cb" stroke-width="0.9" /><path d="M188.9 281l-11 -7M188.9 281l13 -9" fill="none" stroke="#f2e8cb" stroke-width="0.9" /><path d="M189.6 286l-14 -7M189.6 286l7 -9" fill="none" stroke="#f2e8cb" stroke-width="0.9" /><path d="M167 382Q185 255 176 215" fill="none" stroke="#bc9555" stroke-width="1.1" /><path d="M177.0 215l-8 -7M177.0 215l7 -9" fill="none" stroke="#f2e8cb" stroke-width="0.9" /><path d="M177.7 220l-11 -7M177.7 220l9 -9" fill="none" stroke="#f2e8cb" stroke-width="0.9" /><path d="M178.4 225l-14 -7M178.4 225l11 -9" fill="none" stroke="#f2e8cb" stroke-width="0.9" /><path d="M179.1 230l-8 -7M179.1 230l13 -9" fill="none" stroke="#f2e8cb" stroke-width="0.9" /><path d="M179.8 235l-11 -7M179.8 235l7 -9" fill="none" stroke="#f2e8cb" stroke-width="0.9" /><path d="M180.5 240l-14 -7M180.5 240l9 -9" fill="none" stroke="#f2e8cb" stroke-width="0.9" /><path d="M181.2 245l-8 -7M181.2 245l11 -9" fill="none" stroke="#f2e8cb" stroke-width="0.9" /><path d="M181.9 250l-11 -7M181.9 250l13 -9" fill="none" stroke="#f2e8cb" stroke-width="0.9" /><path d="M182.6 255l-14 -7M182.6 255l7 -9" fill="none" stroke="#f2e8cb" stroke-width="0.9" /><path d="M181 382Q206 303 197 263" fill="none" stroke="#bc9555" stroke-width="1.1" /><path d="M198.0 263l-8 -7M198.0 263l7 -9" fill="none" stroke="#f2e8cb" stroke-width="0.9" /><path d="M198.7 268l-11 -7M198.7 268l9 -9" fill="none" stroke="#f2e8cb" stroke-width="0.9" /><path d="M199.4 273l-14 -7M199.4 273l11 -9" fill="none" stroke="#f2e8cb" stroke-width="0.9" /><path d="M200.1 278l-8 -7M200.1 278l13 -9" fill="none" stroke="#f2e8cb" stroke-width="0.9" /><path d="M200.8 283l-11 -7M200.8 283l7 -9" fill="none" stroke="#f2e8cb" stroke-width="0.9" /><path d="M201.5 288l-14 -7M201.5 288l9 -9" fill="none" stroke="#f2e8cb" stroke-width="0.9" /><path d="M202.2 293l-8 -7M202.2 293l11 -9" fill="none" stroke="#f2e8cb" stroke-width="0.9" /><path d="M202.9 298l-11 -7M202.9 298l13 -9" fill="none" stroke="#f2e8cb" stroke-width="0.9" /><path d="M203.6 303l-14 -7M203.6 303l7 -9" fill="none" stroke="#f2e8cb" stroke-width="0.9" /><path d="M195 382Q227 272 218 232" fill="none" stroke="#bc9555" stroke-width="1.1" /><path d="M219.0 232l-8 -7M219.0 232l7 -9" fill="none" stroke="#f2e8cb" stroke-width="0.9" /><path d="M219.7 237l-11 -7M219.7 237l9 -9" fill="none" stroke="#f2e8cb" stroke-width="0.9" /><path d="M220.4 242l-14 -7M220.4 242l11 -9" fill="none" stroke="#f2e8cb" stroke-width="0.9" /><path d="M221.1 247l-8 -7M221.1 247l13 -9" fill="none" stroke="#f2e8cb" stroke-width="0.9" /><path d="M221.8 252l-11 -7M221.8 252l7 -9" fill="none" stroke="#f2e8cb" stroke-width="0.9" /><path d="M222.5 257l-14 -7M222.5 257l9 -9" fill="none" stroke="#f2e8cb" stroke-width="0.9" /><path d="M223.2 262l-8 -7M223.2 262l11 -9" fill="none" stroke="#f2e8cb" stroke-width="0.9" /><path d="M223.9 267l-11 -7M223.9 267l13 -9" fill="none" stroke="#f2e8cb" stroke-width="0.9" /><path d="M224.6 272l-14 -7M224.6 272l7 -9" fill="none" stroke="#f2e8cb" stroke-width="0.9" /><path d="M209 382Q248 241 239 201" fill="none" stroke="#bc9555" stroke-width="1.1" /><path d="M240.0 201l-8 -7M240.0 201l7 -9" fill="none" stroke="#f2e8cb" stroke-width="0.9" /><path d="M240.7 206l-11 -7M240.7 206l9 -9" fill="none" stroke="#f2e8cb" stroke-width="0.9" /><path d="M241.4 211l-14 -7M241.4 211l11 -9" fill="none" stroke="#f2e8cb" stroke-width="0.9" /><path d="M242.1 216l-8 -7M242.1 216l13 -9" fill="none" stroke="#f2e8cb" stroke-width="0.9" /><path d="M242.8 221l-11 -7M242.8 221l7 -9" fill="none" stroke="#f2e8cb" stroke-width="0.9" /><path d="M243.5 226l-14 -7M243.5 226l9 -9" fill="none" stroke="#f2e8cb" stroke-width="0.9" /><path d="M244.2 231l-8 -7M244.2 231l11 -9" fill="none" stroke="#f2e8cb" stroke-width="0.9" /><path d="M244.9 236l-11 -7M244.9 236l13 -9" fill="none" stroke="#f2e8cb" stroke-width="0.9" /><path d="M245.6 241l-14 -7M245.6 241l7 -9" fill="none" stroke="#f2e8cb" stroke-width="0.9" /><path d="M223 382Q241 289 232 249" fill="none" stroke="#bc9555" stroke-width="1.1" /><path d="M233.0 249l-8 -7M233.0 249l7 -9" fill="none" stroke="#f2e8cb" stroke-width="0.9" /><path d="M233.7 254l-11 -7M233.7 254l9 -9" fill="none" stroke="#f2e8cb" stroke-width="0.9" /><path d="M234.4 259l-14 -7M234.4 259l11 -9" fill="none" stroke="#f2e8cb" stroke-width="0.9" /><path d="M235.1 264l-8 -7M235.1 264l13 -9" fill="none" stroke="#f2e8cb" stroke-width="0.9" /><path d="M235.8 269l-11 -7M235.8 269l7 -9" fill="none" stroke="#f2e8cb" stroke-width="0.9" /><path d="M236.5 274l-14 -7M236.5 274l9 -9" fill="none" stroke="#f2e8cb" stroke-width="0.9" /><path d="M237.2 279l-8 -7M237.2 279l11 -9" fill="none" stroke="#f2e8cb" stroke-width="0.9" /><path d="M237.9 284l-11 -7M237.9 284l13 -9" fill="none" stroke="#f2e8cb" stroke-width="0.9" /><path d="M238.6 289l-14 -7M238.6 289l7 -9" fill="none" stroke="#f2e8cb" stroke-width="0.9" /><path d="M237 382Q262 258 253 218" fill="none" stroke="#bc9555" stroke-width="1.1" /><path d="M254.0 218l-8 -7M254.0 218l7 -9" fill="none" stroke="#f2e8cb" stroke-width="0.9" /><path d="M254.7 223l-11 -7M254.7 223l9 -9" fill="none" stroke="#f2e8cb" stroke-width="0.9" /><path d="M255.4 228l-14 -7M255.4 228l11 -9" fill="none" stroke="#f2e8cb" stroke-width="0.9" /><path d="M256.1 233l-8 -7M256.1 233l13 -9" fill="none" stroke="#f2e8cb" stroke-width="0.9" /><path d="M256.8 238l-11 -7M256.8 238l7 -9" fill="none" stroke="#f2e8cb" stroke-width="0.9" /><path d="M257.5 243l-14 -7M257.5 243l9 -9" fill="none" stroke="#f2e8cb" stroke-width="0.9" /><path d="M258.2 248l-8 -7M258.2 248l11 -9" fill="none" stroke="#f2e8cb" stroke-width="0.9" /><path d="M258.9 253l-11 -7M258.9 253l13 -9" fill="none" stroke="#f2e8cb" stroke-width="0.9" /><path d="M259.6 258l-14 -7M259.6 258l7 -9" fill="none" stroke="#f2e8cb" stroke-width="0.9" /><use href="#goose" transform="translate(81 104) rotate(10) scale(0.82)"/><use href="#goose" transform="translate(162 66) rotate(-8) scale(0.8)"/><use href="#goose" transform="translate(164 143) rotate(15) scale(0.65)"/><g transform="translate(17 343)"><rect width="16" height="21" rx="1" fill="#c83930" stroke="#f2e8cb" stroke-width=".6"/><text x="8" y="15" fill="#f2e8cb" font-family="serif" font-size="12" text-anchor="middle">花</text></g></g><rect x="10" y="10" width="220" height="360" rx="4" fill="none" stroke="#1c2622" stroke-width="2"/></svg>