<svg xmlns="http://www.w3.org/2000/svg" width="240" height="380" viewBox="0 0 240 380" role="img"><title>花札 12月</title><defs><linearGradient id="paper" x2="1" y2="1"><stop stop-color="#faf1d6"/><stop offset=".56" stop-color="#f0e5c9"/><stop offset="1" stop-color="#e3d4b0"/></linearGradient><linearGradient id="red" x2="0.5" y2="1"><stop stop-color="#d94d40"/><stop offset="1" stop-color="#a22627"/></linearGradient><clipPath id="face"><rect x="10" y="10" width="220" height="360" rx="4"/></clipPath><g id="plum"><g transform="rotate(0)"><ellipse cx="0" cy="-11" rx="9.7" ry="12" fill="#c83930" stroke="#1c2622" stroke-width="1.3"/></g><g transform="rotate(72)"><ellipse cx="0" cy="-11" rx="9.7" ry="12" fill="#c83930" stroke="#1c2622" stroke-width="1.3"/></g><g transform="rotate(144)"><ellipse cx="0" cy="-11" rx="9.7" ry="12" fill="#c83930" stroke="#1c2622" stroke-width="1.3"/></g><g transform="rotate(216)"><ellipse cx="0" cy="-11" rx="9.7" ry="12" fill="#c83930" stroke="#1c2622" stroke-width="1.3"/></g><g transform="rotate(288)"><ellipse cx="0" cy="-11" rx="9.7" ry="12" fill="#c83930" stroke="#1c2622" stroke-width="1.3"/></g><circle cx="0" cy="0" r="6" fill="#bc9555" stroke="#1c2622" stroke-width="0.8"/><path d="M0 0L10.0 0.0" fill="none" stroke="#fff8e1" stroke-width="0.7" /><circle cx="10.0" cy="0.0" r="1.4" fill="#fff8e1"/><path d="M0 0L7.1 7.1" fill="none" stroke="#fff8e1" stroke-width="0.7" /><circle cx="7.1" cy="7.1" r="1.4" fill="#fff8e1"/><path d="M0 0L0.0 10.0" fill="none" stroke="#fff8e1" stroke-width="0.7" /><circle cx="0.0" cy="10.0" r="1.4" fill="#fff8e1"/><path d="M0 0L-7.1 7.1" fill="none" stroke="#fff8e1" stroke-width="0.7" /><circle cx="-7.1" cy="7.1" r="1.4" fill="#fff8e1"/><path d="M0 0L-10.0 0.0" fill="none" stroke="#fff8e1" stroke-width="0.7" /><circle cx="-10.0" cy="0.0" r="1.4" fill="#fff8e1"/><path d="M0 0L-7.1 -7.1" fill="none" stroke="#fff8e1" stroke-width="0.7" /><circle cx="-7.1" cy="-7.1" r="1.4" fill="#fff8e1"/><path d="M0 0L-0.0 -10.0" fill="none" stroke="#fff8e1" stroke-width="0.7" /><circle cx="-0.0" cy="-10.0" r="1.4" fill="#fff8e1"/><path d="M0 0L7.1 -7.1" fill="none" stroke="#fff8e1" stroke-width="0.7" /><circle cx="7.1" cy="-7.1" r="1.4" fill="#fff8e1"/></g><g id="sakura"><g transform="rotate(0)"><path d="M0 0C-16-10-17-25-7-30L0-25L7-30C17-25 16-10 0 0" fill="#fff8e1" stroke="#1c2622" stroke-width="1" /></g><g transform="rotate(72)"><path d="M0 0C-16-10-17-25-7-30L0-25L7-30C17-25 16-10 0 0" fill="#fff8e1" stroke="#1c2622" stroke-width="1" /></g><g transform="rotate(144)"><path d="M0 0C-16-10-17-25-7-30L0-25L7-30C17-25 16-10 0 0" fill="#fff8e1" stroke="#1c2622" stroke-width="1" /></g><g transform="rotate(216)"><path d="M0 0C-16-10-17-25-7-30L0-25L7-30C17-25 16-10 0 0" fill="#fff8e1" stroke="#1c2622" stroke-width="1" /></g><g transform="rotate(288)"><path d="M0 0C-16-10-17-25-7-30L0-25L7-30C17-25 16-10 0 0" fill="#fff8e1" stroke="#1c2622" stroke-width="1" /></g><circle cx="0" cy="0" r="4.6" fill="#c83930"/><path d="M0 0L14.0 0.0" fill="none" stroke="#c83930" stroke-width="0.8" /><circle cx="14.0" cy="0.0" r="1.4" fill="#c83930"/><path d="M0 0L11.3 8.2" fill="none" stroke="#c83930" stroke-width="0.8" /><circle cx="11.3" cy="8.2" r="1.4" fill="#c83930"/><path d="M0 0L4.3 13.3" fill="none" stroke="#c83930" stroke-width="0.8" /><circle cx="4.3" cy="13.3" r="1.4" fill="#c83930"/><path d="M0 0L-4.3 13.3" fill="none" stroke="#c83930" stroke-width="0.8" /><circle cx="-4.3" cy="13.3" r="1.4" fill="#c83930"/><path d="M0 0L-11.3 8.2" fill="none" stroke="#c83930" stroke-width="0.8" /><circle cx="-11.3" cy="8.2" r="1.4" fill="#c83930"/><path d="M0 0L-14.0 0.0" fill="none" stroke="#c83930" stroke-width="0.8" /><circle cx="-14.0" cy="0.0" r="1.4" fill="#c83930"/><path d="M0 0L-11.3 -8.2" fill="none" stroke="#c83930" stroke-width="0.8" /><circle cx="-11.3" cy="-8.2" r="1.4" fill="#c83930"/><path d="M0 0L-4.3 -13.3" fill="none" stroke="#c83930" stroke-width="0.8" /><circle cx="-4.3" cy="-13.3" r="1.4" fill="#c83930"/><path d="M0 0L4.3 -13.3" fill="none" stroke="#c83930" stroke-width="0.8" /><circle cx="4.3" cy="-13.3" r="1.4" fill="#c83930"/><path d="M0 0L11.3 -8.2" fill="none" stroke="#c83930" stroke-width="0.8" /><circle cx="11.3" cy="-8.2" r="1.4" fill="#c83930"/></g><g id="pine"><path d="M-55 9C-73-12-49-35-24-30C-25-52 13-51 26-30C52-45 77-16 55 9Z" fill="#254236" stroke="#1c2622" stroke-width="2" /><path d="M0 12Q-41.6 -8 -52 -18.4" fill="none" stroke="#f2e8cb" stroke-width="0.95" /><path d="M0 12Q-36.8 -8 -46 -19.9" fill="none" stroke="#f2e8cb" stroke-width="0.95" /><path d="M0 12Q-32.0 -8 -40 -21.3" fill="none" stroke="#f2e8cb" stroke-width="0.95" /><path d="M0 12Q-27.2 -8 -34 -22.8" fill="none" stroke="#f2e8cb" stroke-width="0.95" /><path d="M0 12Q-22.4 -8 -28 -24.2" fill="none" stroke="#f2e8cb" stroke-width="0.95" /><path d="M0 12Q-17.6 -8 -22 -25.7" fill="none" stroke="#f2e8cb" stroke-width="0.95" /><path d="M0 12Q-12.8 -8 -16 -27.1" fill="none" stroke="#f2e8cb" stroke-width="0.95" /><path d="M0 12Q-8.0 -8 -10 -28.6" fill="none" stroke="#f2e8cb" stroke-width="0.95" /><path d="M0 12Q-3.2 -8 -4 -30.0" fill="none" stroke="#f2e8cb" stroke-width="0.95" /><path d="M0 12Q1.6 -8 2 -30.5" fill="none" stroke="#f2e8cb" stroke-width="0.95" /><path d="M0 12Q6.4 -8 8 -29.1" fill="none" stroke="#f2e8cb" stroke-width="0.95" /><path d="M0 12Q11.2 -8 14 -27.6" fill="none" stroke="#f2e8cb" stroke-width="0.95" /><path d="M0 12Q16.0 -8 20 -26.2" fill="none" stroke="#f2e8cb" stroke-width="0.95" /><path d="M0 12Q20.8 -8 26 -24.7" fill="none" stroke="#f2e8cb" stroke-width="0.95" /><path d="M0 12Q25.6 -8 32 -23.3" fill="none" stroke="#f2e8cb" stroke-width="0.95" /><path d="M0 12Q30.4 -8 38 -21.8" fill="none" stroke="#f2e8cb" stroke-width="0.95" /><path d="M0 12Q35.2 -8 44 -20.4" fill="none" stroke="#f2e8cb" stroke-width="0.95" /><path d="M0 12Q40.0 -8 50 -18.9" fill="none" stroke="#f2e8cb" stroke-width="0.95" /><path d="M0 12Q44.8 -8 56 -17.5" fill="none" stroke="#f2e8cb" stroke-width="0.95" /><path d="M-54 10Q0-4 54 10" fill="none" stroke="#1c2622" stroke-width="2" /></g><g id="maple"><path d="M0 37L-5 13L-23 23L-20 8L-40 4L-28-7L-35-23L-15-20L-18-43L-5-32L0-54L7-32L20-45L18-20L36-25L29-7L42 3L23 9L26 22L7 13Z" fill="#c83930" stroke="#1c2622" stroke-width="1.5" /><path d="M0 27L-27 -17" fill="none" stroke="#bc9555" stroke-width="1" /><path d="M0 27L0 -43" fill="none" stroke="#bc9555" stroke-width="1" /><path d="M0 27L28 -17" fill="none" stroke="#bc9555" stroke-width="1" /><path d="M0 27L-29 4" fill="none" stroke="#bc9555" stroke-width="1" /><path d="M0 27L28 4" fill="none" stroke="#bc9555" stroke-width="1" /></g><g id="chrys"><g transform="rotate(0.0)"><ellipse cx="0" cy="-20" rx="5.5" ry="16" fill="#bc9555" stroke="#1c2622" stroke-width=".75"/></g><g transform="rotate(18.0)"><ellipse cx="0" cy="-20" rx="5.5" ry="16" fill="#bc9555" stroke="#1c2622" stroke-width=".75"/></g><g transform="rotate(36.0)"><ellipse cx="0" cy="-20" rx="5.5" ry="16" fill="#bc9555" stroke="#1c2622" stroke-width=".75"/></g><g transform="rotate(54.0)"><ellipse cx="0" cy="-20" rx="5.5" ry="16" fill="#bc9555" stroke="#1c2622" stroke-width=".75"/></g><g transform="rotate(72.0)"><ellipse cx="0" cy="-20" rx="5.5" ry="16" fill="#bc9555" stroke="#1c2622" stroke-width=".75"/></g><g transform="rotate(90.0)"><ellipse cx="0" cy="-20" rx="5.5" ry="16" fill="#bc9555" stroke="#1c2622" stroke-width=".75"/></g><g transform="rotate(108.0)"><ellipse cx="0" cy="-20" rx="5.5" ry="16" fill="#bc9555" stroke="#1c2622" stroke-width=".75"/></g><g transform="rotate(126.0)"><ellipse cx="0" cy="-20" rx="5.5" ry="16" fill="#bc9555" stroke="#1c2622" stroke-width=".75"/></g><g transform="rotate(144.0)"><ellipse cx="0" cy="-20" rx="5.5" ry="16" fill="#bc9555" stroke="#1c2622" stroke-width=".75"/></g><g transform="rotate(162.0)"><ellipse cx="0" cy="-20" rx="5.5" ry="16" fill="#bc9555" stroke="#1c2622" stroke-width=".75"/></g><g transform="rotate(180.0)"><ellipse cx="0" cy="-20" rx="5.5" ry="16" fill="#bc9555" stroke="#1c2622" stroke-width=".75"/></g><g transform="rotate(198.0)"><ellipse cx="0" cy="-20" rx="5.5" ry="16" fill="#bc9555" stroke="#1c2622" stroke-width=".75"/></g><g transform="rotate(216.0)"><ellipse cx="0" cy="-20" rx="5.5" ry="16" fill="#bc9555" stroke="#1c2622" stroke-width=".75"/></g><g transform="rotate(234.0)"><ellipse cx="0" cy="-20" rx="5.5" ry="16" fill="#bc9555" stroke="#1c2622" stroke-width=".75"/></g><g transform="rotate(252.0)"><ellipse cx="0" cy="-20" rx="5.5" ry="16" fill="#bc9555" stroke="#1c2622" stroke-width=".75"/></g><g transform="rotate(270.0)"><ellipse cx="0" cy="-20" rx="5.5" ry="16" fill="#bc9555" stroke="#1c2622" stroke-width=".75"/></g><g transform="rotate(288.0)"><ellipse cx="0" cy="-20" rx="5.5" ry="16" fill="#bc9555" stroke="#1c2622" stroke-width=".75"/></g><g transform="rotate(306.0)"><ellipse cx="0" cy="-20" rx="5.5" ry="16" fill="#bc9555" stroke="#1c2622" stroke-width=".75"/></g><g transform="rotate(324.0)"><ellipse cx="0" cy="-20" rx="5.5" ry="16" fill="#bc9555" stroke="#1c2622" stroke-width=".75"/></g><g transform="rotate(342.0)"><ellipse cx="0" cy="-20" rx="5.5" ry="16" fill="#bc9555" stroke="#1c2622" stroke-width=".75"/></g><g transform="rotate(13.0)"><ellipse cx="0" cy="-12" rx="4" ry="12" fill="#bc9555" stroke="#1c2622" stroke-width=".75"/></g><g transform="rotate(35.5)"><ellipse cx="0" cy="-12" rx="4" ry="12" fill="#bc9555" stroke="#1c2622" stroke-width=".75"/></g><g transform="rotate(58.0)"><ellipse cx="0" cy="-12" rx="4" ry="12" fill="#bc9555" stroke="#1c2622" stroke-width=".75"/></g><g transform="rotate(80.5)"><ellipse cx="0" cy="-12" rx="4" ry="12" fill="#bc9555" stroke="#1c2622" stroke-width=".75"/></g><g transform="rotate(103.0)"><ellipse cx="0" cy="-12" rx="4" ry="12" fill="#bc9555" stroke="#1c2622" stroke-width=".75"/></g><g transform="rotate(125.5)"><ellipse cx="0" cy="-12" rx="4" ry="12" fill="#bc9555" stroke="#1c2622" stroke-width=".75"/></g><g transform="rotate(148.0)"><ellipse cx="0" cy="-12" rx="4" ry="12" fill="#bc9555" stroke="#1c2622" stroke-width=".75"/></g><g transform="rotate(170.5)"><ellipse cx="0" cy="-12" rx="4" ry="12" fill="#bc9555" stroke="#1c2622" stroke-width=".75"/></g><g transform="rotate(193.0)"><ellipse cx="0" cy="-12" rx="4" ry="12" fill="#bc9555" stroke="#1c2622" stroke-width=".75"/></g><g transform="rotate(215.5)"><ellipse cx="0" cy="-12" rx="4" ry="12" fill="#bc9555" stroke="#1c2622" stroke-width=".75"/></g><g transform="rotate(238.0)"><ellipse cx="0" cy="-12" rx="4" ry="12" fill="#bc9555" stroke="#1c2622" stroke-width=".75"/></g><g transform="rotate(260.5)"><ellipse cx="0" cy="-12" rx="4" ry="12" fill="#bc9555" stroke="#1c2622" stroke-width=".75"/></g><g transform="rotate(283.0)"><ellipse cx="0" cy="-12" rx="4" ry="12" fill="#bc9555" stroke="#1c2622" stroke-width=".75"/></g><g transform="rotate(305.5)"><ellipse cx="0" cy="-12" rx="4" ry="12" fill="#bc9555" stroke="#1c2622" stroke-width=".75"/></g><g transform="rotate(328.0)"><ellipse cx="0" cy="-12" rx="4" ry="12" fill="#bc9555" stroke="#1c2622" stroke-width=".75"/></g><g transform="rotate(350.5)"><ellipse cx="0" cy="-12" rx="4" ry="12" fill="#bc9555" stroke="#1c2622" stroke-width=".75"/></g><g transform="rotate(26.0)"><ellipse cx="0" cy="-6" rx="3" ry="8" fill="#bc9555" stroke="#1c2622" stroke-width=".75"/></g><g transform="rotate(56.0)"><ellipse cx="0" cy="-6" rx="3" ry="8" fill="#bc9555" stroke="#1c2622" stroke-width=".75"/></g><g transform="rotate(86.0)"><ellipse cx="0" cy="-6" rx="3" ry="8" fill="#bc9555" stroke="#1c2622" stroke-width=".75"/></g><g transform="rotate(116.0)"><ellipse cx="0" cy="-6" rx="3" ry="8" fill="#bc9555" stroke="#1c2622" stroke-width=".75"/></g><g transform="rotate(146.0)"><ellipse cx="0" cy="-6" rx="3" ry="8" fill="#bc9555" stroke="#1c2622" stroke-width=".75"/></g><g transform="rotate(176.0)"><ellipse cx="0" cy="-6" rx="3" ry="8" fill="#bc9555" stroke="#1c2622" stroke-width=".75"/></g><g transform="rotate(206.0)"><ellipse cx="0" cy="-6" rx="3" ry="8" fill="#bc9555" stroke="#1c2622" stroke-width=".75"/></g><g transform="rotate(236.0)"><ellipse cx="0" cy="-6" rx="3" ry="8" fill="#bc9555" stroke="#1c2622" stroke-width=".75"/></g><g transform="rotate(266.0)"><ellipse cx="0" cy="-6" rx="3" ry="8" fill="#bc9555" stroke="#1c2622" stroke-width=".75"/></g><g transform="rotate(296.0)"><ellipse cx="0" cy="-6" rx="3" ry="8" fill="#bc9555" stroke="#1c2622" stroke-width=".75"/></g><g transform="rotate(326.0)"><ellipse cx="0" cy="-6" rx="3" ry="8" fill="#bc9555" stroke="#1c2622" stroke-width=".75"/></g><g transform="rotate(356.0)"><ellipse cx="0" cy="-6" rx="3" ry="8" fill="#bc9555" stroke="#1c2622" stroke-width=".75"/></g><circle cx="0" cy="0" r="5" fill="#c83930" stroke="#1c2622" stroke-width="1"/></g><g id="whitechrys"><g transform="rotate(0.0)"><ellipse cx="0" cy="-20" rx="5.5" ry="16" fill="#fff8e1" stroke="#1c2622" stroke-width=".75"/></g><g transform="rotate(18.0)"><ellipse cx="0" cy="-20" rx="5.5" ry="16" fill="#fff8e1" stroke="#1c2622" stroke-width=".75"/></g><g transform="rotate(36.0)"><ellipse cx="0" cy="-20" rx="5.5" ry="16" fill="#fff8e1" stroke="#1c2622" stroke-width=".75"/></g><g transform="rotate(54.0)"><ellipse cx="0" cy="-20" rx="5.5" ry="16" fill="#fff8e1" stroke="#1c2622" stroke-width=".75"/></g><g transform="rotate(72.0)"><ellipse cx="0" cy="-20" rx="5.5" ry="16" fill="#fff8e1" stroke="#1c2622" stroke-width=".75"/></g><g transform="rotate(90.0)"><ellipse cx="0" cy="-20" rx="5.5" ry="16" fill="#fff8e1" stroke="#1c2622" stroke-width=".75"/></g><g transform="rotate(108.0)"><ellipse cx="0" cy="-20" rx="5.5" ry="16" fill="#fff8e1" stroke="#1c2622" stroke-width=".75"/></g><g transform="rotate(126.0)"><ellipse cx="0" cy="-20" rx="5.5" ry="16" fill="#fff8e1" stroke="#1c2622" stroke-width=".75"/></g><g transform="rotate(144.0)"><ellipse cx="0" cy="-20" rx="5.5" ry="16" fill="#fff8e1" stroke="#1c2622" stroke-width=".75"/></g><g transform="rotate(162.0)"><ellipse cx="0" cy="-20" rx="5.5" ry="16" fill="#fff8e1" stroke="#1c2622" stroke-width=".75"/></g><g transform="rotate(180.0)"><ellipse cx="0" cy="-20" rx="5.5" ry="16" fill="#fff8e1" stroke="#1c2622" stroke-width=".75"/></g><g transform="rotate(198.0)"><ellipse cx="0" cy="-20" rx="5.5" ry="16" fill="#fff8e1" stroke="#1c2622" stroke-width=".75"/></g><g transform="rotate(216.0)"><ellipse cx="0" cy="-20" rx="5.5" ry="16" fill="#fff8e1" stroke="#1c2622" stroke-width=".75"/></g><g transform="rotate(234.0)"><ellipse cx="0" cy="-20" rx="5.5" ry="16" fill="#fff8e1" stroke="#1c2622" stroke-width=".75"/></g><g transform="rotate(252.0)"><ellipse cx="0" cy="-20" rx="5.5" ry="16" fill="#fff8e1" stroke="#1c2622" stroke-width=".75"/></g><g transform="rotate(270.0)"><ellipse cx="0" cy="-20" rx="5.5" ry="16" fill="#fff8e1" stroke="#1c2622" stroke-width=".75"/></g><g transform="rotate(288.0)"><ellipse cx="0" cy="-20" rx="5.5" ry="16" fill="#fff8e1" stroke="#1c2622" stroke-width=".75"/></g><g transform="rotate(306.0)"><ellipse cx="0" cy="-20" rx="5.5" ry="16" fill="#fff8e1" stroke="#1c2622" stroke-width=".75"/></g><g transform="rotate(324.0)"><ellipse cx="0" cy="-20" rx="5.5" ry="16" fill="#fff8e1" stroke="#1c2622" stroke-width=".75"/></g><g transform="rotate(342.0)"><ellipse cx="0" cy="-20" rx="5.5" ry="16" fill="#fff8e1" stroke="#1c2622" stroke-width=".75"/></g><g transform="rotate(13.0)"><ellipse cx="0" cy="-12" rx="4" ry="12" fill="#fff8e1" stroke="#1c2622" stroke-width=".75"/></g><g transform="rotate(35.5)"><ellipse cx="0" cy="-12" rx="4" ry="12" fill="#fff8e1" stroke="#1c2622" stroke-width=".75"/></g><g transform="rotate(58.0)"><ellipse cx="0" cy="-12" rx="4" ry="12" fill="#fff8e1" stroke="#1c2622" stroke-width=".75"/></g><g transform="rotate(80.5)"><ellipse cx="0" cy="-12" rx="4" ry="12" fill="#fff8e1" stroke="#1c2622" stroke-width=".75"/></g><g transform="rotate(103.0)"><ellipse cx="0" cy="-12" rx="4" ry="12" fill="#fff8e1" stroke="#1c2622" stroke-width=".75"/></g><g transform="rotate(125.5)"><ellipse cx="0" cy="-12" rx="4" ry="12" fill="#fff8e1" stroke="#1c2622" stroke-width=".75"/></g><g transform="rotate(148.0)"><ellipse cx="0" cy="-12" rx="4" ry="12" fill="#fff8e1" stroke="#1c2622" stroke-width=".75"/></g><g transform="rotate(170.5)"><ellipse cx="0" cy="-12" rx="4" ry="12" fill="#fff8e1" stroke="#1c2622" stroke-width=".75"/></g><g transform="rotate(193.0)"><ellipse cx="0" cy="-12" rx="4" ry="12" fill="#fff8e1" stroke="#1c2622" stroke-width=".75"/></g><g transform="rotate(215.5)"><ellipse cx="0" cy="-12" rx="4" ry="12" fill="#fff8e1" stroke="#1c2622" stroke-width=".75"/></g><g transform="rotate(238.0)"><ellipse cx="0" cy="-12" rx="4" ry="12" fill="#fff8e1" stroke="#1c2622" stroke-width=".75"/></g><g transform="rotate(260.5)"><ellipse cx="0" cy="-12" rx="4" ry="12" fill="#fff8e1" stroke="#1c2622" stroke-width=".75"/></g><g transform="rotate(283.0)"><ellipse cx="0" cy="-12" rx="4" ry="12" fill="#fff8e1" stroke="#1c2622" stroke-width=".75"/></g><g transform="rotate(305.5)"><ellipse cx="0" cy="-12" rx="4" ry="12" fill="#fff8e1" stroke="#1c2622" stroke-width=".75"/></g><g transform="rotate(328.0)"><ellipse cx="0" cy="-12" rx="4" ry="12" fill="#fff8e1" stroke="#1c2622" stroke-width=".75"/></g><g transform="rotate(350.5)"><ellipse cx="0" cy="-12" rx="4" ry="12" fill="#fff8e1" stroke="#1c2622" stroke-width=".75"/></g><g transform="rotate(26.0)"><ellipse cx="0" cy="-6" rx="3" ry="8" fill="#fff8e1" stroke="#1c2622" stroke-width=".75"/></g><g transform="rotate(56.0)"><ellipse cx="0" cy="-6" rx="3" ry="8" fill="#fff8e1" stroke="#1c2622" stroke-width=".75"/></g><g transform="rotate(86.0)"><ellipse cx="0" cy="-6" rx="3" ry="8" fill="#fff8e1" stroke="#1c2622" stroke-width=".75"/></g><g transform="rotate(116.0)"><ellipse cx="0" cy="-6" rx="3" ry="8" fill="#fff8e1" stroke="#1c2622" stroke-width=".75"/></g><g transform="rotate(146.0)"><ellipse cx="0" cy="-6" rx="3" ry="8" fill="#fff8e1" stroke="#1c2622" stroke-width=".75"/></g><g transform="rotate(176.0)"><ellipse cx="0" cy="-6" rx="3" ry="8" fill="#fff8e1" stroke="#1c2622" stroke-width=".75"/></g><g transform="rotate(206.0)"><ellipse cx="0" cy="-6" rx="3" ry="8" fill="#fff8e1" stroke="#1c2622" stroke-width=".75"/></g><g transform="rotate(236.0)"><ellipse cx="0" cy="-6" rx="3" ry="8" fill="#fff8e1" stroke="#1c2622" stroke-width=".75"/></g><g transform="rotate(266.0)"><ellipse cx="0" cy="-6" rx="3" ry="8" fill="#fff8e1" stroke="#1c2622" stroke-width=".75"/></g><g transform="rotate(296.0)"><ellipse cx="0" cy="-6" rx="3" ry="8" fill="#fff8e1" stroke="#1c2622" stroke-width=".75"/></g><g transform="rotate(326.0)"><ellipse cx="0" cy="-6" rx="3" ry="8" fill="#fff8e1" stroke="#1c2622" stroke-width=".75"/></g><g transform="rotate(356.0)"><ellipse cx="0" cy="-6" rx="3" ry="8" fill="#fff8e1" stroke="#1c2622" stroke-width=".75"/></g><circle cx="0" cy="0" r="5" fill="#c83930" stroke="#1c2622" stroke-width="1"/></g><g id="peony"><g transform="rotate(0.0) translate(0 -20) scale(1)"><path d="M0 6C-19 0-21-15-13-20C-15-34-1-37 5-28C16-37 25-23 16-13C24-4 13 5 0 6" fill="#fff8e1" stroke="#1c2622" stroke-width="1.2" /></g><g transform="rotate(40.0) translate(0 -20) scale(1)"><path d="M0 6C-19 0-21-15-13-20C-15-34-1-37 5-28C16-37 25-23 16-13C24-4 13 5 0 6" fill="#fff8e1" stroke="#1c2622" stroke-width="1.2" /></g><g transform="rotate(80.0) translate(0 -20) scale(1)"><path d="M0 6C-19 0-21-15-13-20C-15-34-1-37 5-28C16-37 25-23 16-13C24-4 13 5 0 6" fill="#fff8e1" stroke="#1c2622" stroke-width="1.2" /></g><g transform="rotate(120.0) translate(0 -20) scale(1)"><path d="M0 6C-19 0-21-15-13-20C-15-34-1-37 5-28C16-37 25-23 16-13C24-4 13 5 0 6" fill="#fff8e1" stroke="#1c2622" stroke-width="1.2" /></g><g transform="rotate(160.0) translate(0 -20) scale(1)"><path d="M0 6C-19 0-21-15-13-20C-15-34-1-37 5-28C16-37 25-23 16-13C24-4 13 5 0 6" fill="#fff8e1" stroke="#1c2622" stroke-width="1.2" /></g><g transform="rotate(200.0) translate(0 -20) scale(1)"><path d="M0 6C-19 0-21-15-13-20C-15-34-1-37 5-28C16-37 25-23 16-13C24-4 13 5 0 6" fill="#fff8e1" stroke="#1c2622" stroke-width="1.2" /></g><g transform="rotate(240.0) translate(0 -20) scale(1)"><path d="M0 6C-19 0-21-15-13-20C-15-34-1-37 5-28C16-37 25-23 16-13C24-4 13 5 0 6" fill="#fff8e1" stroke="#1c2622" stroke-width="1.2" /></g><g transform="rotate(280.0) translate(0 -20) scale(1)"><path d="M0 6C-19 0-21-15-13-20C-15-34-1-37 5-28C16-37 25-23 16-13C24-4 13 5 0 6" fill="#fff8e1" stroke="#1c2622" stroke-width="1.2" /></g><g transform="rotate(320.0) translate(0 -20) scale(1)"><path d="M0 6C-19 0-21-15-13-20C-15-34-1-37 5-28C16-37 25-23 16-13C24-4 13 5 0 6" fill="#fff8e1" stroke="#1c2622" stroke-width="1.2" /></g><g transform="rotate(22.0) translate(0 -11) scale(0.78)"><path d="M0 6C-19 0-21-15-13-20C-15-34-1-37 5-28C16-37 25-23 16-13C24-4 13 5 0 6" fill="#c83930" stroke="#1c2622" stroke-width="1.2" /></g><g transform="rotate(73.42857142857143) translate(0 -11) scale(0.78)"><path d="M0 6C-19 0-21-15-13-20C-15-34-1-37 5-28C16-37 25-23 16-13C24-4 13 5 0 6" fill="#c83930" stroke="#1c2622" stroke-width="1.2" /></g><g transform="rotate(124.85714285714286) translate(0 -11) scale(0.78)"><path d="M0 6C-19 0-21-15-13-20C-15-34-1-37 5-28C16-37 25-23 16-13C24-4 13 5 0 6" fill="#c83930" stroke="#1c2622" stroke-width="1.2" /></g><g transform="rotate(176.28571428571428) translate(0 -11) scale(0.78)"><path d="M0 6C-19 0-21-15-13-20C-15-34-1-37 5-28C16-37 25-23 16-13C24-4 13 5 0 6" fill="#c83930" stroke="#1c2622" stroke-width="1.2" /></g><g transform="rotate(227.71428571428572) translate(0 -11) scale(0.78)"><path d="M0 6C-19 0-21-15-13-20C-15-34-1-37 5-28C16-37 25-23 16-13C24-4 13 5 0 6" fill="#c83930" stroke="#1c2622" stroke-width="1.2" /></g><g transform="rotate(279.14285714285717) translate(0 -11) scale(0.78)"><path d="M0 6C-19 0-21-15-13-20C-15-34-1-37 5-28C16-37 25-23 16-13C24-4 13 5 0 6" fill="#c83930" stroke="#1c2622" stroke-width="1.2" /></g><g transform="rotate(330.57142857142856) translate(0 -11) scale(0.78)"><path d="M0 6C-19 0-21-15-13-20C-15-34-1-37 5-28C16-37 25-23 16-13C24-4 13 5 0 6" fill="#c83930" stroke="#1c2622" stroke-width="1.2" /></g><g transform="rotate(44.0) translate(0 -4) scale(0.6)"><path d="M0 6C-19 0-21-15-13-20C-15-34-1-37 5-28C16-37 25-23 16-13C24-4 13 5 0 6" fill="#fff8e1" stroke="#1c2622" stroke-width="1.2" /></g><g transform="rotate(116.0) translate(0 -4) scale(0.6)"><path d="M0 6C-19 0-21-15-13-20C-15-34-1-37 5-28C16-37 25-23 16-13C24-4 13 5 0 6" fill="#fff8e1" stroke="#1c2622" stroke-width="1.2" /></g><g transform="rotate(188.0) translate(0 -4) scale(0.6)"><path d="M0 6C-19 0-21-15-13-20C-15-34-1-37 5-28C16-37 25-23 16-13C24-4 13 5 0 6" fill="#fff8e1" stroke="#1c2622" stroke-width="1.2" /></g><g transform="rotate(260.0) translate(0 -4) scale(0.6)"><path d="M0 6C-19 0-21-15-13-20C-15-34-1-37 5-28C16-37 25-23 16-13C24-4 13 5 0 6" fill="#fff8e1" stroke="#1c2622" stroke-width="1.2" /></g><g transform="rotate(332.0) translate(0 -4) scale(0.6)"><path d="M0 6C-19 0-21-15-13-20C-15-34-1-37 5-28C16-37 25-23 16-13C24-4 13 5 0 6" fill="#fff8e1" stroke="#1c2622" stroke-width="1.2" /></g><circle cx="0" cy="0" r="5" fill="#bc9555" stroke="#1c2622" stroke-width="1"/></g><g id="leaf"><path d="M0 0C-6-21 6-39 23-48C28-24 15-7 0 0" fill="#254236" stroke="#1c2622" stroke-width="1.3" /><path d="M1-1L21-43" fill="none" stroke="#bc9555" stroke-width="0.7" /></g><g id="iris"><path d="M0 0C-24-8-41-28-23-39C-12-41-3-20 0-11C4-25 9-50 23-41C40-24 14-6 0 0" fill="#726386" stroke="#1c2622" stroke-width="1.7" /><path d="M0-5C-6-36-21-56-8-63C8-69 11-40 0-5" fill="#726386" stroke="#1c2622" stroke-width="1.7" /><path d="M0-4C-12-19-34-18-40-3C-34 16-9 4 0-4M0-4C9-20 32-18 40-3C33 17 10 6 0-4" fill="#726386" stroke="#1c2622" stroke-width="1.7" /><path d="M-4-4L-31-2L-16 3ZM4-4L31-2L16 3Z" fill="#bc9555" /><path d="M0-7L-5-31L0-43L5-30Z" fill="#bc9555" /></g><g id="clover"><g transform="translate(0 0)"><path d="M0 0C-24 2-30-15-23-24C-6-24 1-13 0 0M0 0C24 2 30-15 23-24C6-24-1-13 0 0" fill="#254236" stroke="#1c2622" stroke-width="1" /></g><g transform="translate(0 -12)"><path d="M0 0C-24 2-30-15-23-24C-6-24 1-13 0 0M0 0C24 2 30-15 23-24C6-24-1-13 0 0" fill="#254236" stroke="#1c2622" stroke-width="1" /></g><g transform="translate(0 -24)"><path d="M0 0C-24 2-30-15-23-24C-6-24 1-13 0 0M0 0C24 2 30-15 23-24C6-24-1-13 0 0" fill="#254236" stroke="#1c2622" stroke-width="1" /></g><path d="M0 12L0-64" fill="none" stroke="#1c2622" stroke-width="2" /><ellipse cx="-6" cy="-46" rx="4.5" ry="7.5" fill="#c83930" stroke="#1c2622" stroke-width=".6"/><ellipse cx="1" cy="-43" rx="4.5" ry="7.5" fill="#c83930" stroke="#1c2622" stroke-width=".6"/><ellipse cx="8" cy="-40" rx="4.5" ry="7.5" fill="#c83930" stroke="#1c2622" stroke-width=".6"/><ellipse cx="-6" cy="-58" rx="4.5" ry="7.5" fill="#c83930" stroke="#1c2622" stroke-width=".6"/><ellipse cx="1" cy="-55" rx="4.5" ry="7.5" fill="#c83930" stroke="#1c2622" stroke-width=".6"/><ellipse cx="8" cy="-52" rx="4.5" ry="7.5" fill="#c83930" stroke="#1c2622" stroke-width=".6"/><ellipse cx="-6" cy="-70" rx="4.5" ry="7.5" fill="#c83930" stroke="#1c2622" stroke-width=".6"/><ellipse cx="1" cy="-67" rx="4.5" ry="7.5" fill="#c83930" stroke="#1c2622" stroke-width=".6"/><ellipse cx="8" cy="-64" rx="4.5" ry="7.5" fill="#c83930" stroke="#1c2622" stroke-width=".6"/></g><g id="paul"><path d="M0 48C-28 23-47-8-25-25C-16-43 0-30 0-17C2-39 29-40 34-18C57 1 35 27 0 48" fill="#254236" stroke="#1c2622" stroke-width="1.4" /><path d="M0 3L-23 -20M0 3L27 -20" fill="none" stroke="#bc9555" stroke-width="0.8" /><path d="M0 16L-23 -7M0 16L27 -7" fill="none" stroke="#bc9555" stroke-width="0.8" /><path d="M0 29L-14 6M0 29L15 6" fill="none" stroke="#bc9555" stroke-width="0.8" /><path d="M0 42L-14 19M0 42L15 19" fill="none" stroke="#bc9555" stroke-width="0.8" /><path d="M0 45V-22" fill="none" stroke="#bc9555" stroke-width="1.2" /></g><g id="butterfly"><path d="M0 2C-17-37-44-32-37-7C-48 9-22 27-3 11M0 2C17-37 44-32 37-7C48 9 22 27 3 11" fill="#fff8e1" stroke="#1c2622" stroke-width="2" /><g transform="scale(-1 1)"><path d="M4 0C14-20 31-23 31-8L8 3M7 6C25 0 34 11 22 16Z" fill="#bc9555" stroke="#1c2622" stroke-width="1" /><path d="M10 1L28-13M12 8L25 12" fill="none" stroke="#1c2622" stroke-width="1" /></g><g transform="scale(1 1)"><path d="M4 0C14-20 31-23 31-8L8 3M7 6C25 0 34 11 22 16Z" fill="#bc9555" stroke="#1c2622" stroke-width="1" /><path d="M10 1L28-13M12 8L25 12" fill="none" stroke="#1c2622" stroke-width="1" /></g><path d="M0-8V16M0-7L-8-20M0-7L8-20" fill="none" stroke="#1c2622" stroke-width="3" /></g><g id="petal"><path d="M0 0C-14-4-14-17-4-24L0-19L5-23C16-10 9-1 0 0" fill="#c83930" stroke="#1c2622" stroke-width="0.7" /></g><g id="goose"><path d="M-36 1Q-14-20 0-2Q17-24 37-18Q17-6 9 6L14 14L0 10Q-10 10-16 5Z" fill="#1c2622" /><path d="M-28 0L-10-3L-1 4M11 0L29-13" fill="none" stroke="#fff8e1" stroke-width="1.8" /></g></defs><rect width="240" height="380" rx="12" fill="#1c2622"/><rect x="6" y="6" width="228" height="368" rx="7" fill="#bc9555"/><rect x="9" y="9" width="222" height="362" rx="4" fill="url(#paper)"/><g clip-path="url(#face)"><g opacity=".25"><circle cx="194" cy="335" r="0.4" fill="#bc9555"/><circle cx="91" cy="62" r="0.8" fill="#bc9555"/><circle cx="104" cy="162" r="0.4" fill="#bc9555"/><circle cx="89" cy="181" r="0.4" fill="#bc9555"/><circle cx="167" cy="264" r="0.8" fill="#bc9555"/><circle cx="167" cy="187" r="0.8" fill="#bc9555"/><circle cx="216" cy="276" r="0.4" fill="#bc9555"/><circle cx="220" cy="310" r="0.8" fill="#bc9555"/><circle cx="196" cy="275" r="0.4" fill="#bc9555"/><circle cx="65" cy="300" r="0.4" fill="#bc9555"/><circle cx="218" cy="205" r="0.6" fill="#bc9555"/><circle cx="205" cy="44" r="0.8" fill="#bc9555"/><circle cx="27" cy="296" r="0.8" fill="#bc9555"/><circle cx="104" cy="181" r="0.8" fill="#bc9555"/><circle cx="128" cy="234" r="0.4" fill="#bc9555"/><circle cx="127" cy="109" r="0.6" fill="#bc9555"/><circle cx="226" cy="354" r="0.8" fill="#bc9555"/><circle cx="12" cy="254" r="0.4" fill="#bc9555"/><circle cx="130" cy="15" r="0.4" fill="#bc9555"/><circle cx="48" cy="138" r="0.6" fill="#bc9555"/><circle cx="113" cy="123" r="0.4" fill="#bc9555"/><circle cx="57" cy="152" r="0.6" fill="#bc9555"/><circle cx="46" cy="53" r="0.6" fill="#bc9555"/><circle cx="143" cy="103" r="0.4" fill="#bc9555"/><circle cx="178" cy="74" r="0.4" fill="#bc9555"/><circle cx="165" cy="276" r="0.4" fill="#bc9555"/><circle cx="173" cy="291" r="0.6" fill="#bc9555"/><circle cx="52" cy="79" r="0.8" fill="#bc9555"/><circle cx="92" cy="247" r="0.4" fill="#bc9555"/><circle cx="205" cy="223" r="0.8" fill="#bc9555"/><circle cx="221" cy="62" r="0.8" fill="#bc9555"/><circle cx="68" cy="82" r="0.4" fill="#bc9555"/><circle cx="50" cy="42" r="0.8" fill="#bc9555"/><circle cx="40" cy="359" r="0.4" fill="#bc9555"/><circle cx="21" cy="240" r="0.4" fill="#bc9555"/><circle cx="180" cy="245" r="0.8" fill="#bc9555"/><circle cx="64" cy="164" r="0.8" fill="#bc9555"/><circle cx="102" cy="181" r="0.6" fill="#bc9555"/><circle cx="212" cy="106" r="0.8" fill="#bc9555"/><circle cx="111" cy="84" r="0.8" fill="#bc9555"/><circle cx="159" cy="38" r="0.4" fill="#bc9555"/><circle cx="13" cy="313" r="0.6" fill="#bc9555"/><circle cx="191" cy="249" r="0.4" fill="#bc9555"/><circle cx="50" cy="260" r="0.4" fill="#bc9555"/><circle cx="90" cy="16" r="0.8" fill="#bc9555"/><circle cx="135" cy="28" r="0.6" fill="#bc9555"/><circle cx="44" cy="308" r="0.4" fill="#bc9555"/><circle cx="197" cy="227" r="0.6" fill="#bc9555"/><circle cx="29" cy="193" r="0.6" fill="#bc9555"/><circle cx="120" cy="298" r="0.6" fill="#bc9555"/><circle cx="203" cy="208" r="0.8" fill="#bc9555"/><circle cx="177" cy="186" r="0.8" fill="#bc9555"/><circle cx="110" cy="323" r="0.4" fill="#bc9555"/><circle cx="150" cy="198" r="0.6" fill="#bc9555"/><circle cx="40" cy="185" r="0.8" fill="#bc9555"/><circle cx="170" cy="278" r="0.6" fill="#bc9555"/><circle cx="13" cy="22" r="0.4" fill="#bc9555"/><circle cx="186" cy="288" r="0.8" fill="#bc9555"/><circle cx="219" cy="211" r="0.8" fill="#bc9555"/><circle cx="172" cy="335" r="0.8" fill="#bc9555"/><circle cx="42" cy="152" r="0.6" fill="#bc9555"/><circle cx="50" cy="314" r="0.4" fill="#bc9555"/><circle cx="18" cy="271" r="0.8" fill="#bc9555"/><circle cx="38" cy="160" r="0.4" fill="#bc9555"/><circle cx="130" cy="167" r="0.8" fill="#bc9555"/><circle cx="15" cy="28" r="0.8" fill="#bc9555"/><circle cx="38" cy="244" r="0.4" fill="#bc9555"/><circle cx="182" cy="24" r="0.4" fill="#bc9555"/><circle cx="222" cy="324" r="0.6" fill="#bc9555"/><circle cx="169" cy="284" r="0.6" fill="#bc9555"/><circle cx="144" cy="353" r="0.6" fill="#bc9555"/><circle cx="41" cy="242" r="0.6" fill="#bc9555"/><circle cx="84" cy="12" r="0.8" fill="#bc9555"/><circle cx="25" cy="339" r="0.8" fill="#bc9555"/><circle cx="179" cy="142" r="0.6" fill="#bc9555"/><circle cx="56" cy="296" r="0.8" fill="#bc9555"/><circle cx="218" cy="288" r="0.4" fill="#bc9555"/><circle cx="202" cy="350" r="0.8" fill="#bc9555"/><circle cx="54" cy="192" r="0.6" fill="#bc9555"/><circle cx="168" cy="145" r="0.4" fill="#bc9555"/><circle cx="62" cy="360" r="0.8" fill="#bc9555"/><circle cx="146" cy="73" r="0.4" fill="#bc9555"/><circle cx="16" cy="336" r="0.8" fill="#bc9555"/><circle cx="30" cy="183" r="0.4" fill="#bc9555"/><circle cx="212" cy="290" r="0.4" fill="#bc9555"/><circle cx="70" cy="214" r="0.8" fill="#bc9555"/><circle cx="197" cy="98" r="0.6" fill="#bc9555"/><circle cx="80" cy="321" r="0.6" fill="#bc9555"/><circle cx="54" cy="208" r="0.8" fill="#bc9555"/><circle cx="188" cy="367" r="0.4" fill="#bc9555"/></g><use href="#paul" transform="translate(50 322) rotate(-45) scale(1.2)"/><use href="#paul" transform="translate(128 342) rotate(5) scale(1.35)"/><use href="#paul" transform="translate(197 323) rotate(35) scale(1.15)"/><use href="#paul" transform="translate(93 265) rotate(-25) scale(1.1)"/><use href="#paul" transform="translate(162 256) rotate(20) scale(1.18)"/><path d="M48 277V189" fill="none" stroke="#1c2622" stroke-width="3" /><path d="M48 261L28 255" fill="none" stroke="#1c2622" stroke-width="1.8" /><path d="M28 255c-10-3-11-16-6-20l6 4l5-4c8 7 6 17-5 20" fill="#726386" stroke="#1c2622" stroke-width="0.9" /><path d="M25 242l3 9l3-9" fill="none" stroke="#fff8e1" stroke-width="0.8" /><path d="M48 261L68 255" fill="none" stroke="#1c2622" stroke-width="1.8" /><path d="M68 255c-10-3-11-16-6-20l6 4l5-4c8 7 6 17-5 20" fill="#726386" stroke="#1c2622" stroke-width="0.9" /><path d="M65 242l3 9l3-9" fill="none" stroke="#fff8e1" stroke-width="0.8" /><path d="M48 244L31 238" fill="none" stroke="#1c2622" stroke-width="1.8" /><path d="M31 238c-10-3-11-16-6-20l6 4l5-4c8 7 6 17-5 20" fill="#726386" stroke="#1c2622" stroke-width="0.9" /><path d="M28 225l3 9l3-9" fill="none" stroke="#fff8e1" stroke-width="0.8" /><path d="M48 244L65 238" fill="none" stroke="#1c2622" stroke-width="1.8" /><path d="M65 238c-10-3-11-16-6-20l6 4l5-4c8 7 6 17-5 20" fill="#726386" stroke="#1c2622" stroke-width="0.9" /><path d="M62 225l3 9l3-9" fill="none" stroke="#fff8e1" stroke-width="0.8" /><path d="M48 227L34 221" fill="none" stroke="#1c2622" stroke-width="1.8" /><path d="M34 221c-10-3-11-16-6-20l6 4l5-4c8 7 6 17-5 20" fill="#726386" stroke="#1c2622" stroke-width="0.9" /><path d="M31 208l3 9l3-9" fill="none" stroke="#fff8e1" stroke-width="0.8" /><path d="M48 227L62 221" fill="none" stroke="#1c2622" stroke-width="1.8" /><path d="M62 221c-10-3-11-16-6-20l6 4l5-4c8 7 6 17-5 20" fill="#726386" stroke="#1c2622" stroke-width="0.9" /><path d="M59 208l3 9l3-9" fill="none" stroke="#fff8e1" stroke-width="0.8" /><path d="M48 210L37 204" fill="none" stroke="#1c2622" stroke-width="1.8" /><path d="M37 204c-10-3-11-16-6-20l6 4l5-4c8 7 6 17-5 20" fill="#726386" stroke="#1c2622" stroke-width="0.9" /><path d="M34 191l3 9l3-9" fill="none" stroke="#fff8e1" stroke-width="0.8" /><path d="M48 210L59 204" fill="none" stroke="#1c2622" stroke-width="1.8" /><path d="M59 204c-10-3-11-16-6-20l6 4l5-4c8 7 6 17-5 20" fill="#726386" stroke="#1c2622" stroke-width="0.9" /><path d="M56 191l3 9l3-9" fill="none" stroke="#fff8e1" stroke-width="0.8" /><path d="M48 193L40 187" fill="none" stroke="#1c2622" stroke-width="1.8" /><path d="M40 187c-10-3-11-16-6-20l6 4l5-4c8 7 6 17-5 20" fill="#726386" stroke="#1c2622" stroke-width="0.9" /><path d="M37 174l3 9l3-9" fill="none" stroke="#fff8e1" stroke-width="0.8" /><path d="M48 193L56 187" fill="none" stroke="#1c2622" stroke-width="1.8" /><path d="M56 187c-10-3-11-16-6-20l6 4l5-4c8 7 6 17-5 20" fill="#726386" stroke="#1c2622" stroke-width="0.9" /><path d="M53 174l3 9l3-9" fill="none" stroke="#fff8e1" stroke-width="0.8" /><path d="M102 256V168" fill="none" stroke="#1c2622" stroke-width="3" /><path d="M102 240L82 234" fill="none" stroke="#1c2622" stroke-width="1.8" /><path d="M82 234c-10-3-11-16-6-20l6 4l5-4c8 7 6 17-5 20" fill="#726386" stroke="#1c2622" stroke-width="0.9" /><path d="M79 221l3 9l3-9" fill="none" stroke="#fff8e1" stroke-width="0.8" /><path d="M102 240L122 234" fill="none" stroke="#1c2622" stroke-width="1.8" /><path d="M122 234c-10-3-11-16-6-20l6 4l5-4c8 7 6 17-5 20" fill="#726386" stroke="#1c2622" stroke-width="0.9" /><path d="M119 221l3 9l3-9" fill="none" stroke="#fff8e1" stroke-width="0.8" /><path d="M102 223L85 217" fill="none" stroke="#1c2622" stroke-width="1.8" /><path d="M85 217c-10-3-11-16-6-20l6 4l5-4c8 7 6 17-5 20" fill="#726386" stroke="#1c2622" stroke-width="0.9" /><path d="M82 204l3 9l3-9" fill="none" stroke="#fff8e1" stroke-width="0.8" /><path d="M102 223L119 217" fill="none" stroke="#1c2622" stroke-width="1.8" /><path d="M119 217c-10-3-11-16-6-20l6 4l5-4c8 7 6 17-5 20" fill="#726386" stroke="#1c2622" stroke-width="0.9" /><path d="M116 204l3 9l3-9" fill="none" stroke="#fff8e1" stroke-width="0.8" /><path d="M102 206L88 200" fill="none" stroke="#1c2622" stroke-width="1.8" /><path d="M88 200c-10-3-11-16-6-20l6 4l5-4c8 7 6 17-5 20" fill="#726386" stroke="#1c2622" stroke-width="0.9" /><path d="M85 187l3 9l3-9" fill="none" stroke="#fff8e1" stroke-width="0.8" /><path d="M102 206L116 200" fill="none" stroke="#1c2622" stroke-width="1.8" /><path d="M116 200c-10-3-11-16-6-20l6 4l5-4c8 7 6 17-5 20" fill="#726386" stroke="#1c2622" stroke-width="0.9" /><path d="M113 187l3 9l3-9" fill="none" stroke="#fff8e1" stroke-width="0.8" /><path d="M102 189L91 183" fill="none" stroke="#1c2622" stroke-width="1.8" /><path d="M91 183c-10-3-11-16-6-20l6 4l5-4c8 7 6 17-5 20" fill="#726386" stroke="#1c2622" stroke-width="0.9" /><path d="M88 170l3 9l3-9" fill="none" stroke="#fff8e1" stroke-width="0.8" /><path d="M102 189L113 183" fill="none" stroke="#1c2622" stroke-width="1.8" /><path d="M113 183c-10-3-11-16-6-20l6 4l5-4c8 7 6 17-5 20" fill="#726386" stroke="#1c2622" stroke-width="0.9" /><path d="M110 170l3 9l3-9" fill="none" stroke="#fff8e1" stroke-width="0.8" /><path d="M102 172L94 166" fill="none" stroke="#1c2622" stroke-width="1.8" /><path d="M94 166c-10-3-11-16-6-20l6 4l5-4c8 7 6 17-5 20" fill="#726386" stroke="#1c2622" stroke-width="0.9" /><path d="M91 153l3 9l3-9" fill="none" stroke="#fff8e1" stroke-width="0.8" /><path d="M102 172L110 166" fill="none" stroke="#1c2622" stroke-width="1.8" /><path d="M110 166c-10-3-11-16-6-20l6 4l5-4c8 7 6 17-5 20" fill="#726386" stroke="#1c2622" stroke-width="0.9" /><path d="M107 153l3 9l3-9" fill="none" stroke="#fff8e1" stroke-width="0.8" /><path d="M157 260V172" fill="none" stroke="#1c2622" stroke-width="3" /><path d="M157 244L137 238" fill="none" stroke="#1c2622" stroke-width="1.8" /><path d="M137 238c-10-3-11-16-6-20l6 4l5-4c8 7 6 17-5 20" fill="#726386" stroke="#1c2622" stroke-width="0.9" /><path d="M134 225l3 9l3-9" fill="none" stroke="#fff8e1" stroke-width="0.8" /><path d="M157 244L177 238" fill="none" stroke="#1c2622" stroke-width="1.8" /><path d="M177 238c-10-3-11-16-6-20l6 4l5-4c8 7 6 17-5 20" fill="#726386" stroke="#1c2622" stroke-width="0.9" /><path d="M174 225l3 9l3-9" fill="none" stroke="#fff8e1" stroke-width="0.8" /><path d="M157 227L140 221" fill="none" stroke="#1c2622" stroke-width="1.8" /><path d="M140 221c-10-3-11-16-6-20l6 4l5-4c8 7 6 17-5 20" fill="#726386" stroke="#1c2622" stroke-width="0.9" /><path d="M137 208l3 9l3-9" fill="none" stroke="#fff8e1" stroke-width="0.8" /><path d="M157 227L174 221" fill="none" stroke="#1c2622" stroke-width="1.8" /><path d="M174 221c-10-3-11-16-6-20l6 4l5-4c8 7 6 17-5 20" fill="#726386" stroke="#1c2622" stroke-width="0.9" /><path d="M171 208l3 9l3-9" fill="none" stroke="#fff8e1" stroke-width="0.8" /><path d="M157 210L143 204" fill="none" stroke="#1c2622" stroke-width="1.8" /><path d="M143 204c-10-3-11-16-6-20l6 4l5-4c8 7 6 17-5 20" fill="#726386" stroke="#1c2622" stroke-width="0.9" /><path d="M140 191l3 9l3-9" fill="none" stroke="#fff8e1" stroke-width="0.8" /><path d="M157 210L171 204" fill="none" stroke="#1c2622" stroke-width="1.8" /><path d="M171 204c-10-3-11-16-6-20l6 4l5-4c8 7 6 17-5 20" fill="#726386" stroke="#1c2622" stroke-width="0.9" /><path d="M168 191l3 9l3-9" fill="none" stroke="#fff8e1" stroke-width="0.8" /><path d="M157 193L146 187" fill="none" stroke="#1c2622" stroke-width="1.8" /><path d="M146 187c-10-3-11-16-6-20l6 4l5-4c8 7 6 17-5 20" fill="#726386" stroke="#1c2622" stroke-width="0.9" /><path d="M143 174l3 9l3-9" fill="none" stroke="#fff8e1" stroke-width="0.8" /><path d="M157 193L168 187" fill="none" stroke="#1c2622" stroke-width="1.8" /><path d="M168 187c-10-3-11-16-6-20l6 4l5-4c8 7 6 17-5 20" fill="#726386" stroke="#1c2622" stroke-width="0.9" /><path d="M165 174l3 9l3-9" fill="none" stroke="#fff8e1" stroke-width="0.8" /><path d="M157 176L149 170" fill="none" stroke="#1c2622" stroke-width="1.8" /><path d="M149 170c-10-3-11-16-6-20l6 4l5-4c8 7 6 17-5 20" fill="#726386" stroke="#1c2622" stroke-width="0.9" /><path d="M146 157l3 9l3-9" fill="none" stroke="#fff8e1" stroke-width="0.8" /><path d="M157 176L165 170" fill="none" stroke="#1c2622" stroke-width="1.8" /><path d="M165 170c-10-3-11-16-6-20l6 4l5-4c8 7 6 17-5 20" fill="#726386" stroke="#1c2622" stroke-width="0.9" /><path d="M162 157l3 9l3-9" fill="none" stroke="#fff8e1" stroke-width="0.8" /><path d="M204 288V200" fill="none" stroke="#1c2622" stroke-width="3" /><path d="M204 272L184 266" fill="none" stroke="#1c2622" stroke-width="1.8" /><path d="M184 266c-10-3-11-16-6-20l6 4l5-4c8 7 6 17-5 20" fill="#726386" stroke="#1c2622" stroke-width="0.9" /><path d="M181 253l3 9l3-9" fill="none" stroke="#fff8e1" stroke-width="0.8" /><path d="M204 272L224 266" fill="none" stroke="#1c2622" stroke-width="1.8" /><path d="M224 266c-10-3-11-16-6-20l6 4l5-4c8 7 6 17-5 20" fill="#726386" stroke="#1c2622" stroke-width="0.9" /><path d="M221 253l3 9l3-9" fill="none" stroke="#fff8e1" stroke-width="0.8" /><path d="M204 255L187 249" fill="none" stroke="#1c2622" stroke-width="1.8" /><path d="M187 249c-10-3-11-16-6-20l6 4l5-4c8 7 6 17-5 20" fill="#726386" stroke="#1c2622" stroke-width="0.9" /><path d="M184 236l3 9l3-9" fill="none" stroke="#fff8e1" stroke-width="0.8" /><path d="M204 255L221 249" fill="none" stroke="#1c2622" stroke-width="1.8" /><path d="M221 249c-10-3-11-16-6-20l6 4l5-4c8 7 6 17-5 20" fill="#726386" stroke="#1c2622" stroke-width="0.9" /><path d="M218 236l3 9l3-9" fill="none" stroke="#fff8e1" stroke-width="0.8" /><path d="M204 238L190 232" fill="none" stroke="#1c2622" stroke-width="1.8" /><path d="M190 232c-10-3-11-16-6-20l6 4l5-4c8 7 6 17-5 20" fill="#726386" stroke="#1c2622" stroke-width="0.9" /><path d="M187 219l3 9l3-9" fill="none" stroke="#fff8e1" stroke-width="0.8" /><path d="M204 238L218 232" fill="none" stroke="#1c2622" stroke-width="1.8" /><path d="M218 232c-10-3-11-16-6-20l6 4l5-4c8 7 6 17-5 20" fill="#726386" stroke="#1c2622" stroke-width="0.9" /><path d="M215 219l3 9l3-9" fill="none" stroke="#fff8e1" stroke-width="0.8" /><path d="M204 221L193 215" fill="none" stroke="#1c2622" stroke-width="1.8" /><path d="M193 215c-10-3-11-16-6-20l6 4l5-4c8 7 6 17-5 20" fill="#726386" stroke="#1c2622" stroke-width="0.9" /><path d="M190 202l3 9l3-9" fill="none" stroke="#fff8e1" stroke-width="0.8" /><path d="M204 221L215 215" fill="none" stroke="#1c2622" stroke-width="1.8" /><path d="M215 215c-10-3-11-16-6-20l6 4l5-4c8 7 6 17-5 20" fill="#726386" stroke="#1c2622" stroke-width="0.9" /><path d="M212 202l3 9l3-9" fill="none" stroke="#fff8e1" stroke-width="0.8" /><path d="M204 204L196 198" fill="none" stroke="#1c2622" stroke-width="1.8" /><path d="M196 198c-10-3-11-16-6-20l6 4l5-4c8 7 6 17-5 20" fill="#726386" stroke="#1c2622" stroke-width="0.9" /><path d="M193 185l3 9l3-9" fill="none" stroke="#fff8e1" stroke-width="0.8" /><path d="M204 204L212 198" fill="none" stroke="#1c2622" stroke-width="1.8" /><path d="M212 198c-10-3-11-16-6-20l6 4l5-4c8 7 6 17-5 20" fill="#726386" stroke="#1c2622" stroke-width="0.9" /><path d="M209 185l3 9l3-9" fill="none" stroke="#fff8e1" stroke-width="0.8" /><g transform="translate(17 343)"><rect width="16" height="21" rx="1" fill="#c83930" stroke="#f2e8cb" stroke-width=".6"/><text x="8" y="15" fill="#f2e8cb" font-family="serif" font-size="12" text-anchor="middle">花</text></g></g><rect x="10" y="10" width="220" height="360" rx="4" fill="none" stroke="#1c2622" stroke-width="2"/></svg>